<svg xmlns="http://www.w3.org/2000/svg" xmlns:xlink="http://www.w3.org/1999/xlink" fill="none" version="1.1" width="24" height="24" viewBox="0 0 24 24"><g><g><path d="M8.780484,3.969824L16.28033,11.46967Q16.33256,11.521899999999999,16.3736,11.58332Q16.41464,11.644739999999999,16.442909999999998,11.71299Q16.47118,11.78123,16.485590000000002,11.85368Q16.5,11.92613,16.5,12Q16.5,12.07387,16.485590000000002,12.14632Q16.47118,12.21877,16.442909999999998,12.28701Q16.41464,12.355260000000001,16.3736,12.41668Q16.33256,12.478100000000001,16.28033,12.53033L8.781177,20.0295L8.78033,20.0303Q8.674841,20.1358,8.537013,20.1929Q8.399185,20.25,8.25,20.25Q8.1761315,20.25,8.103682,20.235599999999998Q8.031233,20.2212,7.962987,20.1929Q7.894742,20.1646,7.833322,20.1236Q7.771903,20.0826,7.71967,20.0303Q7.667437,19.978099999999998,7.626398,19.9167Q7.585359,19.8553,7.55709,19.787Q7.528822,19.7188,7.514411,19.6463Q7.5,19.573900000000002,7.5,19.5Q7.5,19.3508,7.55709,19.213Q7.614181,19.075200000000002,7.71967,18.9697L14.68934,12L7.71967,5.03033Q7.614181,4.924841,7.55709,4.787013Q7.5,4.649184,7.5,4.5Q7.5,4.4261315,7.514411,4.353682Q7.528822,4.281233,7.55709,4.212987Q7.585359,4.144742,7.626398,4.083322Q7.667437,4.021903,7.71967,3.96967Q7.771903,3.917437,7.833322,3.876398Q7.894742,3.835359,7.962987,3.80709Q8.031233,3.778822,8.103682,3.764411Q8.1761315,3.75,8.25,3.75Q8.399184,3.75,8.537013,3.80709Q8.674841,3.864181,8.78033,3.96967L8.780484,3.969824Z" fill-rule="evenodd" fill="#000000" fill-opacity="1"/></g></g></svg>