<svg xmlns="http://www.w3.org/2000/svg" xmlns:xlink="http://www.w3.org/1999/xlink" fill="none" version="1.1" width="24" height="24" viewBox="0 0 24 24"><defs><clipPath id="master_svg0_43_0561"><rect x="0" y="0" width="24" height="24" rx="0"/></clipPath></defs><g><g clip-path="url(#master_svg0_43_0561)"><g><path d="M5.369448,5.150698C5.674545,4.8456007,6.169205,4.8456007,6.474305,5.150698L12.171875,10.848275000000001L17.869425,5.150698C18.174525,4.8456007,18.669225,4.8456007,18.974325,5.150698C19.279425,5.455795,19.279425,5.950455,18.974325,6.255555L13.276725,11.953125L18.974325,17.650675C19.279425,17.955775,19.279425,18.450475,18.974325,18.755575C18.669225,19.060675,18.174525,19.060675,17.869425,18.755575L12.171875,13.057975L6.474305,18.755575C6.169205,19.060675,5.674545,19.060675,5.369448,18.755575C5.0643507,18.450475,5.0643507,17.955775,5.369448,17.650675L11.067025000000001,11.953125L5.369448,6.255555C5.0643507,5.950455,5.0643507,5.455795,5.369448,5.150698Z" fill-rule="evenodd" fill="#FFFFFF" fill-opacity="1"/></g></g></g></svg>