<svg xmlns="http://www.w3.org/2000/svg" xmlns:xlink="http://www.w3.org/1999/xlink" fill="none" version="1.1" width="24" height="24" viewBox="0 0 24 24"><defs><clipPath id="master_svg0_43_3053"><rect x="0" y="0" width="24" height="24" rx="0"/></clipPath></defs><g clip-path="url(#master_svg0_43_3053)"><g><path d="M21.375,12C21.375,12.29837,21.2565,12.584520000000001,21.0455,12.795490000000001C20.8345,13.00647,20.5484,13.125,20.25,13.125C20.25,13.125,3.75,13.125,3.75,13.125C3.451631,13.125,3.165483,13.00647,2.954505,12.795490000000001C2.743526,12.584520000000001,2.625,12.29837,2.625,12C2.625,11.70163,2.743526,11.415479999999999,2.954505,11.2045C3.165483,10.99353,3.451631,10.875,3.75,10.875C3.75,10.875,20.25,10.875,20.25,10.875C20.5484,10.875,20.8345,10.99353,21.0455,11.2045C21.2565,11.415479999999999,21.375,11.70163,21.375,12ZM3.75,7.125C3.75,7.125,20.25,7.125,20.25,7.125C20.5484,7.125,20.8345,7.00647,21.0455,6.7955000000000005C21.2565,6.5845199999999995,21.375,6.29837,21.375,6C21.375,5.701631,21.2565,5.415483,21.0455,5.204505C20.8345,4.993526,20.5484,4.875,20.25,4.875C20.25,4.875,3.75,4.875,3.75,4.875C3.451631,4.875,3.165483,4.993526,2.954505,5.204505C2.743526,5.415483,2.625,5.701631,2.625,6C2.625,6.29837,2.743526,6.5845199999999995,2.954505,6.7955000000000005C3.165483,7.00647,3.451631,7.125,3.75,7.125ZM20.25,16.875C20.25,16.875,3.75,16.875,3.75,16.875C3.451631,16.875,3.165483,16.993499999999997,2.954505,17.2045C2.743526,17.4155,2.625,17.7016,2.625,18C2.625,18.2984,2.743526,18.5845,2.954505,18.7955C3.165483,19.006500000000003,3.451631,19.125,3.75,19.125C3.75,19.125,20.25,19.125,20.25,19.125C20.5484,19.125,20.8345,19.006500000000003,21.0455,18.7955C21.2565,18.5845,21.375,18.2984,21.375,18C21.375,17.7016,21.2565,17.4155,21.0455,17.2045C20.8345,16.993499999999997,20.5484,16.875,20.25,16.875Z" fill="#FFFFFF" fill-opacity="1"/></g></g></svg>