<svg xmlns="http://www.w3.org/2000/svg" xmlns:xlink="http://www.w3.org/1999/xlink" fill="none" version="1.1" width="719.499267578125" height="92" viewBox="0 0 719.499267578125 92"><defs><filter id="master_svg0_30_0781" filterUnits="objectBoundingBox" color-interpolation-filters="sRGB" x="0" y="0" width="719.7337369918823" height="103.73373699188232"><feFlood flood-opacity="0" result="BackgroundImageFix"/><feColorMatrix in="SourceAlpha" type="matrix" values="0 0 0 0 0 0 0 0 0 0 0 0 0 0 0 0 0 0 127 0"/><feOffset dy="11.733736991882324" dx="11.733736991882324"/><feGaussianBlur stdDeviation="0"/><feColorMatrix type="matrix" values="0 0 0 0 0.20229491591453552 0 0 0 0 0.198384627699852 0 0 0 0 0.1894473433494568 0 0 0 1 0"/><feBlend mode="normal" in2="BackgroundImageFix" result="effect1_dropShadow"/><feBlend mode="normal" in="SourceGraphic" in2="effect1_dropShadow" result="shape"/></filter><linearGradient x1="354.0000422000885" y1="-2.8166838037138356e-15" x2="354.0000422000885" y2="126.35802888870239" gradientUnits="userSpaceOnUse" id="master_svg1_30_0362"><stop offset="0%" stop-color="#ABF8FF" stop-opacity="1"/><stop offset="100%" stop-color="#CF4DFF" stop-opacity="1"/></linearGradient></defs><g><g filter="url(#master_svg0_30_0781)"><path d="M35.232,12.792Q45.696,12.792,51.312,17.928Q56.928,23.064,56.928,32.568Q56.928,39.96,53.472,45.576Q50.016,51.192,43.68,54.312Q37.344,57.432,29.088,57.432L24.384,57.432L25.056,75L5.76,75L6.72,56.76L5.76,12.888L35.232,12.792ZM31.776,43.992Q34.368,42.552,35.568,40.296Q36.768,38.04,36.768,34.488Q36.768,30.264,34.752,28.296Q32.736,26.328,28.416,26.136L24.96,26.424L24.576,43.608L31.776,43.992ZM90.144,75L89.088,68.184L81.792,67.992L76.032,68.28L74.976,75L57.6,75L72.864,25.752L94.368,25.752L108.192,75L90.144,75ZM82.848,55.32L86.592,55.224L83.808,41.496L82.752,41.496L79.104,55.224L82.848,55.32ZM135.456,24.792Q143.232,24.792,150.624,27.384L148.032,42.168L145.536,42.84Q142.176,40.632,138.576,39.288Q134.976,37.944,132.96,37.944Q130.944,37.944,130.944,39.192Q130.944,40.44,132.336,41.208Q133.728,41.976,136.992,43.224Q141.312,44.76,144.24,46.344Q147.168,47.928,149.328,50.952Q151.488,53.976,151.488,58.68Q151.488,63.288,149.232,67.224Q146.976,71.16,141.984,73.656Q136.992,76.152,129.312,76.152Q120.672,76.152,111.936,73.464L114.528,58.008L116.16,56.76Q119.904,59.736,124.32,61.656Q128.736,63.576,131.616,63.576Q133.92,63.576,133.92,62.04Q133.92,60.888,132.624,60.168Q131.328,59.448,128.064,58.2Q123.744,56.664,120.768,55.032Q117.792,53.4,115.584,50.28Q113.376,47.16,113.376,42.36Q113.376,37.368,115.968,33.384Q118.56,29.4,123.552,27.096Q128.544,24.792,135.456,24.792ZM197.28,27L196.32,39.96L185.472,39.384L185.184,39.384L184.8,58.872L185.472,75L167.712,75L168.576,60.696L168.192,39.384L167.808,39.384L156.864,39.96L155.808,38.712L156.768,25.752L196.32,25.752L197.28,27ZM237.312,24.792Q245.088,24.792,252.48,27.384L249.888,42.168L247.392,42.84Q244.032,40.632,240.432,39.288Q236.832,37.944,234.816,37.944Q232.8,37.944,232.8,39.192Q232.8,40.44,234.192,41.208Q235.584,41.976,238.848,43.224Q243.168,44.76,246.096,46.344Q249.024,47.928,251.184,50.952Q253.344,53.976,253.344,58.68Q253.344,63.288,251.088,67.224Q248.832,71.16,243.84,73.656Q238.848,76.152,231.168,76.152Q222.528,76.152,213.792,73.464L216.384,58.008L218.016,56.76Q221.76,59.736,226.176,61.656Q230.592,63.576,233.472,63.576Q235.776,63.576,235.776,62.04Q235.776,60.888,234.48,60.168Q233.184,59.448,229.92,58.2Q225.6,56.664,222.624,55.032Q219.648,53.4,217.44,50.28Q215.232,47.16,215.232,42.36Q215.232,37.368,217.824,33.384Q220.416,29.4,225.408,27.096Q230.4,24.792,237.312,24.792ZM306.24,50.712L306.144,58.776Q306.048,67.128,300,71.592Q293.952,76.056,282.72,76.056Q271.872,76.056,266.208,71.592Q260.544,67.128,260.832,58.776L261.024,50.808L260.544,25.752L278.304,25.752L277.536,56.376Q277.44,59.448,278.784,60.744Q280.128,62.04,283.488,62.04Q286.848,62.04,288.24,60.744Q289.632,59.448,289.536,56.376L288.768,25.752L306.816,25.752L306.24,50.712ZM342.24,25.752Q351.168,25.752,356.016,29.928Q360.864,34.104,360.864,41.784Q360.864,47.736,357.84,52.344Q354.816,56.952,349.344,59.496Q343.872,62.04,336.768,62.04L333.216,62.04L333.792,75L315.936,75L316.8,60.696L315.936,25.752L342.24,25.752ZM338.976,49.752Q340.704,48.408,341.424,47.064Q342.144,45.72,342.144,43.512Q342.144,40.632,340.656,39.384Q339.168,38.136,335.808,37.944L333.696,38.136L333.312,49.368L338.976,49.752ZM392.736,25.752Q401.664,25.752,406.512,29.928Q411.36,34.104,411.36,41.784Q411.36,47.736,408.336,52.344Q405.312,56.952,399.84,59.496Q394.368,62.04,387.264,62.04L383.712,62.04L384.288,75L366.432,75L367.296,60.696L366.432,25.752L392.736,25.752ZM389.472,49.752Q391.2,48.408,391.92,47.064Q392.64,45.72,392.64,43.512Q392.64,40.632,391.152,39.384Q389.664,38.136,386.304,37.944L384.192,38.136L383.808,49.368L389.472,49.752ZM440.16,24.792Q451.68,24.792,457.968,31.128Q464.256,37.464,464.256,49.08Q464.256,61.944,457.296,69Q450.336,76.056,437.664,76.056Q426.144,76.056,419.856,69.576Q413.568,63.096,413.568,51.384Q413.568,38.712,420.528,31.752Q427.488,24.792,440.16,24.792ZM438.528,38.904Q435.84,38.904,434.544,39.624Q433.248,40.344,432.72,42.456Q432.192,44.568,432.192,48.984Q432.192,55.032,432.768,57.912Q433.344,60.792,434.784,61.848Q436.224,62.904,439.296,62.904Q442.08,62.904,443.376,62.184Q444.672,61.464,445.152,59.4Q445.632,57.336,445.632,52.92Q445.632,46.776,445.104,43.896Q444.576,41.016,443.088,39.96Q441.6,38.904,438.528,38.904ZM507.936,55.896Q514.848,65.688,519.072,70.872L518.784,72.792Q509.856,75.384,501.408,75.96L499.008,74.136Q494.976,65.4,493.152,61.368L488.352,61.368L489.024,75L471.168,75L472.032,60.696L471.168,25.752L497.472,25.752Q506.4,25.752,511.296,29.736Q516.192,33.72,516.192,41.208Q516.192,45.432,514.032,49.224Q511.872,53.016,507.936,55.896ZM488.928,38.136L488.544,48.504L493.824,48.888Q495.744,47.928,496.56,46.584Q497.376,45.24,497.376,43.032Q497.376,40.44,495.936,39.288Q494.496,38.136,491.04,37.944L488.928,38.136ZM562.176,27L561.216,39.96L550.368,39.384L550.08,39.384L549.696,58.872L550.368,75L532.608,75L533.472,60.696L533.088,39.384L532.704,39.384L521.76,39.96L520.704,38.712L521.664,25.752L561.216,25.752L562.176,27ZM606.72,60.888L607.68,62.04L606.624,75L568.512,75L569.376,60.696L568.512,25.752L607.296,25.752L608.256,27L607.2,39.96L594.24,39.384L586.176,39.384L586.08,43.608L593.76,43.608L602.112,43.32L603.072,44.568L602.016,57.528L592.608,57.24L585.696,57.24L585.6,58.872L585.696,61.368L593.28,61.368L606.72,60.888ZM651.36,55.896Q658.272,65.688,662.496,70.872L662.208,72.792Q653.28,75.384,644.832,75.96L642.432,74.136Q638.4,65.4,636.576,61.368L631.776,61.368L632.448,75L614.592,75L615.456,60.696L614.592,25.752L640.896,25.752Q649.824,25.752,654.72,29.736Q659.616,33.72,659.616,41.208Q659.616,45.432,657.456,49.224Q655.296,53.016,651.36,55.896ZM632.352,38.136L631.968,48.504L637.248,48.888Q639.168,47.928,639.984,46.584Q640.8,45.24,640.8,43.032Q640.8,40.44,639.36,39.288Q637.92,38.136,634.464,37.944L632.352,38.136ZM688.8,24.792Q696.576,24.792,703.968,27.384L701.376,42.168L698.88,42.84Q695.52,40.632,691.92,39.288Q688.32,37.944,686.304,37.944Q684.288,37.944,684.288,39.192Q684.288,40.44,685.68,41.208Q687.072,41.976,690.336,43.224Q694.656,44.76,697.584,46.344Q700.512,47.928,702.672,50.952Q704.832,53.976,704.832,58.68Q704.832,63.288,702.576,67.224Q700.32,71.16,695.328,73.656Q690.336,76.152,682.656,76.152Q674.016,76.152,665.28,73.464L667.872,58.008L669.504,56.76Q673.248,59.736,677.664,61.656Q682.08,63.576,684.96,63.576Q687.264,63.576,687.264,62.04Q687.264,60.888,685.968,60.168Q684.672,59.448,681.408,58.2Q677.088,56.664,674.112,55.032Q671.136,53.4,668.928,50.28Q666.72,47.16,666.72,42.36Q666.72,37.368,669.312,33.384Q671.904,29.4,676.896,27.096Q681.888,24.792,688.8,24.792Z" fill="url(#master_svg1_30_0362)" fill-opacity="1"/><path d="M53.2917,15.7633Q46.8351,9.85857,35.232,9.85857L35.2224,9.85858L2.76189,9.96432L3.78488,56.7149L2.66811,77.9334L28.1038,77.9334L27.4318,60.3654L29.088,60.3654Q38.0271,60.3654,44.9759,56.9437Q52.0709,53.4499,55.9703,47.1134Q59.8614,40.7903,59.8614,32.568Q59.8614,21.7715,53.2917,15.7633ZM24.4962,60.3654L24.384,57.432L29.088,57.432Q37.344,57.432,43.68,54.312Q50.016,51.192,53.472,45.576Q56.928,39.96,56.928,32.568Q56.928,23.064,51.312,17.928Q45.696,12.792,35.232,12.792L8.69393,12.8784L5.76,12.888L5.82418,15.8212L6.72,56.76L5.91439,72.0666L5.76,75L25.056,75L24.9438,72.0666L24.4962,60.3654ZM151.595,24.6158Q143.731,21.8586,135.456,21.8586Q127.9,21.8586,122.323,24.4326Q116.563,27.0911,113.509,31.7843Q110.443,36.4977,110.443,42.36Q110.443,48.093,113.19,51.9745Q113.983,53.0954,114.866,54.0564L111.826,56.3811L109.652,69.3471L96.5914,22.8186L70.7021,22.8186L53.6197,77.9334L77.4845,77.9334L78.5597,71.0907L81.8267,70.9274L86.5639,71.052L87.2451,75.4491L87.63,77.9334L112.062,77.9334L111.643,76.4403Q120.513,79.0854,129.312,79.0854Q137.684,79.0854,143.296,76.2797Q149.08,73.3875,151.777,68.6827Q154.421,64.0691,154.421,58.68Q154.421,53.0359,151.715,49.247Q150.022,46.8772,147.904,45.2405L150.599,44.5148L153.781,26.3621L152.794,39.6913L155.565,42.9659L165.313,42.4528L165.641,60.6339L164.596,77.9334L188.53,77.9334L187.735,58.8397L188.057,42.4588L199.033,43.0416L200.205,27.2167L200.288,26.0994L197.764,22.8186L154.044,22.8186L153.852,25.4074L151.595,24.6158ZM185.642,39.393L188.115,39.5243L196.32,39.96L197.28,27L196.32,25.752L156.768,25.752L155.808,38.712L156.864,39.96L165.26,39.5181L167.608,39.3945L167.808,39.384L168.192,39.384L168.576,60.696L167.889,72.0666L167.712,75L185.472,75L185.35,72.0666L184.8,58.872L185.184,39.384L185.472,39.384L185.642,39.393ZM136.992,43.224Q133.728,41.976,132.336,41.208Q130.944,40.44,130.944,39.192Q130.944,37.944,132.96,37.944Q134.976,37.944,138.576,39.288Q142.176,40.632,145.536,42.84L148.032,42.168L150.624,27.384Q143.232,24.792,135.456,24.792Q128.544,24.792,123.552,27.096Q118.56,29.4,115.968,33.384Q113.376,37.368,113.376,42.36Q113.376,47.16,115.584,50.28Q117.792,53.4,120.768,55.032Q123.744,56.664,128.064,58.2Q131.328,59.448,132.624,60.168Q133.92,60.888,133.92,62.04Q133.92,63.576,131.616,63.576Q128.736,63.576,124.32,61.656Q119.904,59.736,116.16,56.76L114.528,58.008L114.357,59.0285L114.35,59.0686L111.936,73.464Q120.672,76.152,129.312,76.152Q136.992,76.152,141.984,73.656Q146.976,71.16,149.232,67.224Q151.488,63.288,151.488,58.68Q151.488,53.976,149.328,50.952Q147.168,47.928,144.24,46.344Q141.312,44.76,136.992,43.224ZM89.088,68.184L90.144,75L108.192,75L107.369,72.0666L94.368,25.752L72.864,25.752L58.5092,72.0666L57.6,75L74.976,75L76.032,68.28L81.792,67.992L89.088,68.184ZM253.451,24.6158Q245.587,21.8586,237.312,21.8586Q229.756,21.8586,224.179,24.4326Q218.419,27.0911,215.365,31.7843Q212.299,36.4977,212.299,42.36Q212.299,48.093,215.046,51.9745Q215.839,53.0954,216.722,54.0564L213.682,56.3811L210.474,75.5123L212.929,76.2677Q222.087,79.0854,231.168,79.0854Q239.54,79.0854,245.152,76.2797Q250.936,73.3875,253.633,68.6827Q256.277,64.069,256.277,58.68Q256.277,53.0359,253.571,49.247Q251.878,46.8772,249.76,45.2405L252.455,44.5148L255.799,25.4393L253.451,24.6158ZM238.848,43.224Q235.584,41.976,234.192,41.208Q232.8,40.44,232.8,39.192Q232.8,37.944,234.816,37.944Q236.832,37.944,240.432,39.288Q244.032,40.632,247.392,42.84L249.888,42.168L252.48,27.384Q245.088,24.792,237.312,24.792Q230.4,24.792,225.408,27.096Q220.416,29.4,217.824,33.384Q215.232,37.368,215.232,42.36Q215.232,47.16,217.44,50.28Q219.648,53.4,222.624,55.032Q225.6,56.664,229.92,58.2Q233.184,59.448,234.48,60.168Q235.776,60.888,235.776,62.04Q235.776,63.576,233.472,63.576Q230.592,63.576,226.176,61.656Q221.76,59.736,218.016,56.76L216.384,58.008L216.213,59.0285L216.206,59.0686L213.792,73.464Q222.528,76.152,231.168,76.152Q238.848,76.152,243.84,73.656Q248.832,71.16,251.088,67.224Q253.344,63.288,253.344,58.68Q253.344,53.976,251.184,50.952Q249.024,47.928,246.096,46.344Q243.168,44.76,238.848,43.224ZM460.05,29.0617Q452.902,21.8586,440.16,21.8586Q426.273,21.8586,418.454,29.6777Q415.521,32.6105,413.688,36.3968Q412.409,31.1361,408.426,27.7054Q402.753,22.8186,392.736,22.8186L363.425,22.8186L364.36,60.6438L363.316,77.9334L387.355,77.9334L386.779,64.9734L387.264,64.9734Q395.017,64.9734,401.077,62.156Q407.241,59.2902,410.715,54.0647Q411.391,65.0651,417.751,71.6188Q424.903,78.9894,437.664,78.9894Q451.563,78.9894,459.384,71.06Q467.19,63.1474,467.189,49.08Q467.19,36.2554,460.05,29.0617ZM410.972,45.8743Q411.139,45.0338,411.234,44.1612Q411.36,43.0005,411.36,41.784Q411.36,34.104,406.512,29.928Q401.664,25.752,392.736,25.752L366.432,25.752L366.505,28.6854L367.296,60.696L366.609,72.0666L366.432,75L384.288,75L384.158,72.0666L383.842,64.9734L383.712,62.04L387.264,62.04Q394.368,62.04,399.84,59.496Q405.312,56.952,408.336,52.344Q410.277,49.386,410.972,45.8743ZM413.871,46.3484Q413.568,48.742,413.568,51.384Q413.568,63.096,419.856,69.576Q426.144,76.056,437.664,76.056Q450.336,76.056,457.296,69Q464.256,61.944,464.256,49.08Q464.256,37.464,457.968,31.128Q451.68,24.792,440.16,24.792Q427.488,24.792,420.528,31.752Q415.557,36.7229,414.136,44.6075Q413.983,45.461,413.871,46.3484ZM704.939,24.6158Q697.075,21.8586,688.8,21.8586Q681.244,21.8586,675.667,24.4326Q669.906,27.0911,666.853,31.7843Q663.787,36.4977,663.787,42.36Q663.787,48.093,666.534,51.9745Q667.327,53.0954,668.21,54.0565L665.17,56.381L663.349,67.2411Q660.042,63.031,655.34,56.4359Q658.199,53.8463,660.005,50.6759Q662.549,46.2089,662.549,41.208Q662.549,32.3251,656.571,27.4607Q650.867,22.8186,640.896,22.8186L611.585,22.8186L612.52,60.6434L611.476,77.9334L635.53,77.9334L634.877,64.7005L640.072,76.0268L643.933,78.9615L645.032,78.8866Q653.611,78.3017,662.639,75.7205L664.417,76.2677Q673.575,79.0854,682.656,79.0854Q691.028,79.0854,696.64,76.2797Q702.424,73.3875,705.121,68.6827Q707.765,64.069,707.765,58.68Q707.766,53.036,705.059,49.247Q703.366,46.8773,701.247,45.2405L703.943,44.5149L707.287,25.4393L704.939,24.6158ZM690.336,43.224Q687.072,41.976,685.68,41.208Q684.288,40.44,684.288,39.192Q684.288,37.944,686.304,37.944Q688.32,37.944,691.92,39.288Q695.52,40.632,698.88,42.84L701.376,42.168L703.968,27.384Q696.576,24.792,688.8,24.792Q681.888,24.792,676.896,27.096Q671.904,29.4,669.312,33.384Q666.72,37.368,666.72,42.36Q666.72,47.16,668.928,50.28Q671.136,53.4,674.112,55.032Q677.088,56.664,681.408,58.2Q684.672,59.448,685.968,60.168Q687.264,60.888,687.264,62.04Q687.264,63.576,684.96,63.576Q682.08,63.576,677.664,61.656Q673.248,59.736,669.504,56.76L667.872,58.008L667.701,59.0285L667.694,59.0686L665.28,73.464Q674.016,76.152,682.656,76.152Q690.336,76.152,695.328,73.656Q700.32,71.16,702.576,67.224Q704.832,63.288,704.832,58.68Q704.832,53.976,702.672,50.952Q700.512,47.928,697.584,46.344Q694.656,44.76,690.336,43.224ZM636.576,61.368Q638.4,65.4,642.432,74.136L644.832,75.96Q653.28,75.384,662.208,72.792L662.496,70.872Q658.272,65.688,651.36,55.896Q655.296,53.016,657.456,49.224Q659.616,45.432,659.616,41.208Q659.616,33.72,654.72,29.736Q649.824,25.752,640.896,25.752L614.592,25.752L614.664,28.6854L615.456,60.696L614.769,72.0666L614.592,75L632.448,75L632.303,72.0666L631.921,64.3014L631.776,61.368L636.576,61.368ZM309.173,50.7797L309.173,50.7469L309.818,22.8186L285.76,22.8186L286.604,56.4676Q286.658,58.2085,286.241,58.597Q285.694,59.1066,283.488,59.1066Q281.312,59.1066,280.82,58.6324Q280.413,58.2394,280.469,56.4495L281.312,22.8186L257.554,22.8186L258.09,50.8011L257.9,58.6749Q257.561,68.512,264.392,73.8959Q270.855,78.9894,282.72,78.9894Q294.917,78.9894,301.742,73.9522Q308.965,68.6213,309.077,58.8109L309.173,50.7797ZM261.024,50.808L260.832,58.776Q260.544,67.128,266.208,71.592Q271.872,76.056,282.72,76.056Q293.952,76.056,300,71.592Q306.048,67.128,306.144,58.776L306.24,50.712L306.748,28.6854L306.816,25.752L288.768,25.752L288.842,28.6854L289.536,56.376Q289.632,59.448,288.24,60.744Q286.848,62.04,283.488,62.04Q280.128,62.04,278.784,60.744Q277.44,59.448,277.536,56.376L278.23,28.6854L278.304,25.752L260.544,25.752L260.6,28.6854L261.024,50.808ZM357.93,27.7054Q352.257,22.8186,342.24,22.8186L312.929,22.8186L313.864,60.6438L312.82,77.9334L336.859,77.9334L336.283,64.9734L336.768,64.9734Q344.521,64.9734,350.581,62.156Q356.81,59.2599,360.293,53.9534Q363.797,48.6126,363.797,41.784Q363.797,32.7591,357.93,27.7054ZM333.346,64.9734L333.216,62.04L336.768,62.04Q343.872,62.04,349.344,59.496Q354.816,56.952,357.84,52.344Q360.864,47.736,360.864,41.784Q360.864,34.104,356.016,29.928Q351.168,25.752,342.24,25.752L315.936,25.752L316.009,28.6854L316.8,60.696L316.113,72.0666L315.936,75L333.792,75L333.662,72.0666L333.346,64.9734ZM507.936,55.896Q511.872,53.016,514.032,49.224Q516.192,45.432,516.192,41.208Q516.192,33.72,511.296,29.736Q506.4,25.752,497.472,25.752L471.168,25.752L471.241,28.6854L472.032,60.696L471.345,72.0666L471.168,75L489.024,75L488.879,72.0666L488.497,64.3014L488.352,61.368L493.152,61.368Q494.976,65.4,499.008,74.136L501.408,75.96Q509.856,75.384,518.784,72.792L519.072,70.872Q514.848,65.688,507.936,55.896ZM491.453,64.7008L496.648,76.0268L500.509,78.9615L501.608,78.8866Q510.371,78.2892,519.602,75.6091L521.406,75.0853L522.165,70.0245L521.346,69.019Q517.678,64.5172,511.916,56.4359Q514.775,53.8462,516.581,50.6759Q519.08,46.2888,519.125,41.3868L520.461,42.9659L530.209,42.4528L530.537,60.6336L529.492,77.9334L553.426,77.9334L552.631,58.8397L552.953,42.4588L563.929,43.0416L565.101,27.2167L565.184,26.0994L562.66,22.8186L518.94,22.8186L518.077,34.4715Q516.622,30.2875,513.147,27.4607Q507.443,22.8186,497.472,22.8186L468.161,22.8186L469.096,60.6438L468.052,77.9334L492.106,77.9334L491.453,64.7008ZM550.538,39.393L550.368,39.384L550.08,39.384L549.696,58.872L550.246,72.0666L550.368,75L532.608,75L532.785,72.0666L533.472,60.696L533.088,39.384L532.704,39.384L532.504,39.3945L530.156,39.5181L521.76,39.96L520.704,38.712L521.664,25.752L561.216,25.752L562.176,27L561.216,39.96L553.011,39.5243L550.538,39.393ZM610.701,61.0832L608.974,59.0101L608.053,57.9051L604.919,58.017L606.088,43.6772L605.426,42.8175L609.894,43.0161L611.272,26.1093L608.74,22.8186L565.505,22.8186L566.44,60.6434L565.396,77.9334L609.328,77.9334L610.701,61.0832ZM569.376,60.696L568.689,72.0666L568.512,75L606.624,75L607.68,62.04L606.72,60.888L593.28,61.368L585.696,61.368L585.6,58.872L585.696,57.24L592.608,57.24L602.016,57.528L603.072,44.568L602.112,43.32L593.76,43.608L586.08,43.608L586.147,40.6746L586.176,39.384L594.24,39.384L607.2,39.96L608.256,27L607.296,25.752L568.512,25.752L568.584,28.6854L569.376,60.696ZM31.776,43.992Q34.368,42.552,35.568,40.296Q36.768,38.04,36.768,34.488Q36.768,30.264,34.752,28.296Q32.736,26.328,28.416,26.136L24.96,26.424L24.576,43.608L31.776,43.992ZM31.0243,41.0143Q32.3393,40.1195,32.9782,38.9184Q33.8346,37.3084,33.8346,34.488Q33.8346,31.4998,32.7029,30.3951Q31.5222,29.2425,28.4658,29.0755L27.8337,29.1281L27.5722,40.8302L31.0243,41.0143ZM341.424,47.064Q340.704,48.408,338.976,49.752L333.312,49.368L333.696,38.136L335.808,37.944Q339.168,38.136,340.656,39.384Q342.144,40.632,342.144,43.512Q342.144,45.72,341.424,47.064ZM336.535,40.9472L336.341,46.6332L337.982,46.7445Q338.57,46.1788,338.838,45.6788Q339.211,44.9838,339.211,43.512Q339.211,42.0003,338.771,41.6315Q338.178,41.1344,336.535,40.9472ZM391.92,47.064Q391.2,48.408,389.472,49.752L383.808,49.368L384.192,38.136L386.304,37.944Q389.664,38.136,391.152,39.384Q392.64,40.632,392.64,43.512Q392.64,45.72,391.92,47.064ZM387.031,40.9472L386.837,46.6332L388.478,46.7445Q389.066,46.1787,389.334,45.6787Q389.707,44.9838,389.707,43.512Q389.707,42.0003,389.267,41.6315Q388.674,41.1344,387.031,40.9472ZM488.544,48.504L488.928,38.136L491.04,37.944Q494.496,38.136,495.936,39.288Q497.376,40.44,497.376,43.032Q497.376,45.24,496.56,46.584Q495.744,47.928,493.824,48.888L488.544,48.504ZM491.58,45.7836L493.16,45.8985Q493.793,45.4894,494.053,45.0616Q494.443,44.4192,494.443,43.032Q494.443,41.8499,494.103,41.5786Q493.529,41.1191,491.76,40.9405L491.58,45.7836ZM632.352,38.136L631.968,48.504L637.248,48.888Q639.168,47.928,639.984,46.584Q640.8,45.24,640.8,43.032Q640.8,40.44,639.36,39.288Q637.92,38.136,634.464,37.944L632.352,38.136ZM636.584,45.8985Q637.217,45.4894,637.477,45.0616Q637.867,44.4192,637.867,43.032Q637.867,41.8499,637.528,41.5786Q636.953,41.1191,635.184,40.9405L635.004,45.7836L636.584,45.8985ZM434.544,39.624Q435.84,38.904,438.528,38.904Q441.6,38.904,443.088,39.96Q444.576,41.016,445.104,43.896Q445.632,46.776,445.632,52.92Q445.632,57.336,445.152,59.4Q444.672,61.464,443.376,62.184Q442.08,62.904,439.296,62.904Q436.224,62.904,434.784,61.848Q433.344,60.792,432.768,57.912Q432.192,55.032,432.192,48.984Q432.192,44.568,432.72,42.456Q433.248,40.344,434.544,39.624ZM83.6143,55.3003L82.848,55.32L82.1187,55.3013L79.104,55.224L79.8785,52.3095L81.6533,45.6305L82.6918,41.7223L82.752,41.496L83.808,41.496L83.8681,41.7926L84.6647,45.7203L86,52.3048L86.592,55.224L83.6143,55.3003ZM82.8938,52.3844L82.9671,52.1087L83.0223,52.3811L82.8938,52.3844ZM435.969,42.1883Q436.6,41.8374,438.528,41.8374Q440.665,41.8374,441.39,42.3522Q441.906,42.718,442.219,44.4249Q442.699,47.0427,442.699,52.92Q442.699,56.9995,442.295,58.7355Q442.11,59.5318,441.951,59.6197Q441.32,59.9706,439.296,59.9706Q437.184,59.9706,436.519,59.4825Q435.997,59.0999,435.645,57.3367Q435.125,54.7415,435.125,48.984Q435.125,44.9291,435.566,43.1675Q435.785,42.2902,435.969,42.1883Z" fill-rule="evenodd" fill="#2B2B2B" fill-opacity="1"/></g></g></svg>