<svg xmlns="http://www.w3.org/2000/svg" xmlns:xlink="http://www.w3.org/1999/xlink" fill="none" version="1.1" width="281.441162109375" height="92" viewBox="0 0 281.441162109375 92"><defs><filter id="master_svg0_30_0701" filterUnits="objectBoundingBox" color-interpolation-filters="sRGB" x="0" y="0" width="276.7337369918823" height="103.73373699188232"><feFlood flood-opacity="0" result="BackgroundImageFix"/><feColorMatrix in="SourceAlpha" type="matrix" values="0 0 0 0 0 0 0 0 0 0 0 0 0 0 0 0 0 0 127 0"/><feOffset dy="11.733736991882324" dx="11.733736991882324"/><feGaussianBlur stdDeviation="0"/><feColorMatrix type="matrix" values="0 0 0 0 0.20229491591453552 0 0 0 0 0.198384627699852 0 0 0 0 0.1894473433494568 0 0 0 1 0"/><feBlend mode="normal" in2="BackgroundImageFix" result="effect1_dropShadow"/><feBlend mode="normal" in="SourceGraphic" in2="effect1_dropShadow" result="shape"/></filter><linearGradient x1="135.95973259210587" y1="-2.8166838037138356e-15" x2="135.95973259210587" y2="126.35802888870239" gradientUnits="userSpaceOnUse" id="master_svg1_30_0362"><stop offset="0%" stop-color="#ABF8FF" stop-opacity="1"/><stop offset="100%" stop-color="#CF4DFF" stop-opacity="1"/></linearGradient></defs><g><g filter="url(#master_svg0_30_0701)"><path d="M44.067716796875,75L20.835716796875,75L3.843716796875,12.888L23.331716796875,12.888L25.059716796875,23.16L32.259716796875,57.816L33.411716796875,57.816L42.243716796875,24.312L44.067716796875,12.888L62.883716796875,12.888L44.067716796875,75ZM105.795716796875,60.888L106.755716796875,62.04L105.699716796875,75L67.587716796875,75L68.451716796875,60.696L67.587716796875,25.752L106.371716796875,25.752L107.331716796875,27L106.275716796875,39.96L93.315716796875,39.384L85.251716796875,39.384L85.155716796875,43.608L92.835716796875,43.608L101.187716796875,43.32L102.147716796875,44.568L101.091716796875,57.528L91.683716796875,57.24L84.771716796875,57.24L84.675716796875,58.872L84.771716796875,61.368L92.355716796875,61.368L105.795716796875,60.888ZM161.571716796875,58.488L162.243716796875,75L142.851716796875,75L130.179716796875,52.344L129.219716796875,52.344L129.123716796875,56.76L129.795716796875,75L113.667716796875,75L114.531716796875,60.6L113.667716796875,25.752L133.059716796875,25.752L145.731716796875,48.408L146.787716796875,48.408L146.211716796875,26.424L162.531716796875,25.464L161.571716796875,58.488ZM217.251716796875,50.712L217.155716796875,58.776Q217.059716796875,67.128,211.011716796875,71.592Q204.963716796875,76.056,193.731716796875,76.056Q182.883716796875,76.056,177.219716796875,71.592Q171.555716796875,67.128,171.843716796875,58.776L172.035716796875,50.808L171.555716796875,25.752L189.315716796875,25.752L188.547716796875,56.376Q188.451716796875,59.448,189.795716796875,60.744Q191.139716796875,62.04,194.499716796875,62.04Q197.859716796875,62.04,199.251716796875,60.744Q200.643716796875,59.448,200.547716796875,56.376L199.779716796875,25.752L217.827716796875,25.752L217.251716796875,50.712ZM265.155716796875,60.888L266.115716796875,62.04L265.059716796875,75L226.947716796875,75L227.811716796875,60.696L226.947716796875,25.752L265.731716796875,25.752L266.691716796875,27L265.635716796875,39.96L252.675716796875,39.384L244.611716796875,39.384L244.515716796875,43.608L252.195716796875,43.608L260.547716796875,43.32L261.507716796875,44.568L260.451716796875,57.528L251.043716796875,57.24L244.131716796875,57.24L244.035716796875,58.872L244.131716796875,61.368L251.715716796875,61.368L265.155716796875,60.888Z" fill="url(#master_svg1_30_0362)" fill-opacity="1"/><path d="M18.597016796875,77.9334L46.244116796875,77.9334L66.837416796875,9.95457L41.565516796875,9.95457L39.370016796875,23.7054L33.105916796875,47.468L27.943216796875,22.6181L25.812916796875,9.95457L-0.0000032031249999064926,9.95457L18.597016796875,77.9334ZM25.059716796875,23.16L23.331716796875,12.888L3.843716796875,12.888L4.6462167968750006,15.8214L20.835716796875,75L44.067716796875,75L61.995116796875,15.8214L62.883716796875,12.888L44.067716796875,12.888L42.243716796875,24.312L34.443016796875,53.9038L33.478416796874995,57.5628L33.411716796875,57.816L32.259716796875,57.816L32.193016796875,57.4947L31.430416796875,53.8241L25.059716796875,23.16ZM161.571716796875,58.488L162.445716796875,28.4075L162.531716796875,25.464L159.591716796875,25.6369L146.211716796875,26.424L146.674716796875,44.0842L146.710716796875,45.4746L146.772716796875,47.8259L146.787716796875,48.408L145.731716796875,48.408L143.760716796875,44.8845L133.059716796875,25.752L113.667716796875,25.752L113.740716796875,28.6854L114.531716796875,60.6L113.843716796875,72.0666L113.667716796875,75L129.795716796875,75L129.687716796875,72.0666L129.123716796875,56.76L129.12971679687502,56.4763L129.207716796875,52.8876L129.219716796875,52.344L130.179716796875,52.344L130.191716796875,52.3651L132.079716796875,55.7415L142.851716796875,75L162.243716796875,75L162.124716796875,72.0666L161.571716796875,58.488ZM132.254716796875,62.0627L132.838716796875,77.9334L110.552716796875,77.9334L111.595716796875,60.5484L110.660716796875,22.8186L134.779716796875,22.8186L143.595716796875,38.5799L143.204716796875,23.6624L165.556716796875,22.3475L164.506716796875,58.471L165.298716796875,77.9334L141.131716796875,77.9334L132.254716796875,62.0627ZM109.776716796875,61.0832L108.049716796875,59.0101L107.128716796875,57.9051L103.994716796875,58.017L105.163716796875,43.6773L104.501716796875,42.8175L108.969716796875,43.0161L110.347716796875,26.1093L107.815716796875,22.8186L64.580816796875,22.8186L65.516116796875,60.6437L64.471716796875,77.9334L108.403716796875,77.9334L109.776716796875,61.0832ZM68.451716796875,60.696L67.764916796875,72.0666L67.587716796875,75L105.699716796875,75L106.755716796875,62.04L105.795716796875,60.888L92.355716796875,61.368L84.771716796875,61.368L84.675716796875,58.872L84.771716796875,57.24L91.683716796875,57.24L101.091716796875,57.528L102.147716796875,44.568L101.187716796875,43.32L92.835716796875,43.608L85.155716796875,43.608L85.222416796875,40.6746L85.251716796875,39.384L93.315716796875,39.384L106.275716796875,39.96L107.331716796875,27L106.371716796875,25.752L67.587716796875,25.752L67.660216796875,28.6854L68.451716796875,60.696ZM220.184716796875,50.7797L220.184716796875,50.7469L220.829716796875,22.8186L196.771716796875,22.8186L197.615716796875,56.4676Q197.669716796875,58.2085,197.252716796875,58.597Q196.705716796875,59.1066,194.499716796875,59.1066Q192.323716796875,59.1066,191.831716796875,58.6324Q191.424716796875,58.2394,191.479716796875,56.4495L192.323716796875,22.8186L168.565716796875,22.8186L169.101716796875,50.8008L168.911716796875,58.6749Q168.572716796875,68.512,175.403716796875,73.8959Q181.866716796875,78.9894,193.731716796875,78.9894Q205.928716796875,78.9894,212.753716796875,73.9522Q219.975716796875,68.6213,220.088716796875,58.8109L220.184716796875,50.7797ZM172.035716796875,50.808L171.843716796875,58.776Q171.555716796875,67.128,177.219716796875,71.592Q182.883716796875,76.056,193.731716796875,76.056Q204.963716796875,76.056,211.011716796875,71.592Q217.059716796875,67.128,217.155716796875,58.776L217.251716796875,50.712L217.759716796875,28.6854L217.827716796875,25.752L199.779716796875,25.752L199.853716796875,28.6854L200.547716796875,56.376Q200.643716796875,59.448,199.251716796875,60.744Q197.859716796875,62.04,194.499716796875,62.04Q191.139716796875,62.04,189.795716796875,60.744Q188.451716796875,59.448,188.547716796875,56.376L189.241716796875,28.6854L189.315716796875,25.752L171.555716796875,25.752L171.611716796875,28.6854L172.035716796875,50.808ZM269.136716796875,61.0832L267.408716796875,59.01L266.488716796875,57.9051L263.354716796875,58.017L264.523716796875,43.6772L263.861716796875,42.8175L268.329716796875,43.0161L269.707716796875,26.1093L267.175716796875,22.8186L223.940716796875,22.8186L224.875716796875,60.6438L223.831716796875,77.9334L267.763716796875,77.9334L269.136716796875,61.0832ZM227.811716796875,60.696L227.124716796875,72.0666L226.947716796875,75L265.059716796875,75L266.115716796875,62.04L265.155716796875,60.888L251.715716796875,61.368L244.131716796875,61.368L244.035716796875,58.872L244.131716796875,57.24L251.043716796875,57.24L260.451716796875,57.528L261.507716796875,44.568L260.547716796875,43.32L252.195716796875,43.608L244.515716796875,43.608L244.582716796875,40.6746L244.611716796875,39.384L252.675716796875,39.384L265.635716796875,39.96L266.691716796875,27L265.731716796875,25.752L226.947716796875,25.752L227.020716796875,28.6854L227.811716796875,60.696Z" fill-rule="evenodd" fill="#2B2B2B" fill-opacity="1"/></g></g></svg>