<svg xmlns="http://www.w3.org/2000/svg" xmlns:xlink="http://www.w3.org/1999/xlink" fill="none" version="1.1" width="407.908935546875" height="92" viewBox="0 0 407.908935546875 92"><defs><filter id="master_svg0_30_0356" filterUnits="objectBoundingBox" color-interpolation-filters="sRGB" x="0" y="0" width="404.7337369918823" height="103.73373699188232"><feFlood flood-opacity="0" result="BackgroundImageFix"/><feColorMatrix in="SourceAlpha" type="matrix" values="0 0 0 0 0 0 0 0 0 0 0 0 0 0 0 0 0 0 127 0"/><feOffset dy="11.733736991882324" dx="11.733736991882324"/><feGaussianBlur stdDeviation="0"/><feColorMatrix type="matrix" values="0 0 0 0 0.20229491591453552 0 0 0 0 0.198384627699852 0 0 0 0 0.1894473433494568 0 0 0 1 0"/><feBlend mode="normal" in2="BackgroundImageFix" result="effect1_dropShadow"/><feBlend mode="normal" in="SourceGraphic" in2="effect1_dropShadow" result="shape"/></filter><linearGradient x1="198.0754628777504" y1="-2.8166838037138356e-15" x2="198.0754628777504" y2="126.35802888870239" gradientUnits="userSpaceOnUse" id="master_svg1_30_0362"><stop offset="0%" stop-color="#ABF8FF" stop-opacity="1"/><stop offset="100%" stop-color="#CF4DFF" stop-opacity="1"/></linearGradient></defs><g><g filter="url(#master_svg0_30_0356)"><path d="M30.855439453125,11.736Q39.975439453125,11.736,48.903439453125,15.096L45.831439453125,30.744L43.143439453125,31.896Q39.111439453125,29.4,35.175439453125,27.96Q31.239439453125,26.52,28.839439453125,26.52Q26.631439453125,26.52,25.335439453125,27.384Q24.039439453125,28.248,24.039439453125,29.688Q24.039439453125,31.512,26.007439453125,32.808Q27.975439453125,34.104,32.583439453124996,36.216Q37.959439453125,38.616,41.415439453125,40.68Q44.871439453125,42.744,47.463439453125,46.344Q50.055439453125,49.944,50.055439453125,55.224Q50.055439453125,61.08,46.839439453125,65.832Q43.623439453125,70.584,37.671439453125,73.368Q31.719439453125,76.152,23.847439453125,76.152Q14.055439453125,76.152,3.3034394531249998,72.504L6.087439453125,55.8L8.007439453125,54.648Q12.423439453125,58.008,17.463439453124998,59.976Q22.503439453125,61.944,25.863439453125,61.944Q28.551439453125,61.944,29.751439453125,61.032Q30.951439453125,60.12,30.951439453125,58.776Q30.951439453125,56.76,28.887439453125,55.368Q26.823439453125,53.976,22.215439453125,51.96Q16.935439453125,49.656,13.527439453125,47.592Q10.119439453125,45.528,7.623439453125,41.928Q5.127439453125,38.328,5.127439453125,33.048Q5.127439453125,27,8.391439453124999,22.152Q11.655439453125,17.304,17.511439453125,14.52Q23.367439453125,11.736,30.855439453125,11.736ZM81.639439453125,24.888Q88.455439453125,24.888,94.599439453125,26.424L91.623439453125,40.536L90.471439453125,41.304Q88.551439453125,40.44,85.863439453125,39.864Q83.175439453125,39.288,80.967439453125,39.288Q76.551439453125,39.288,74.679439453125,41.4Q72.807439453125,43.512,72.807439453125,48.792Q72.807439453125,55.416,75.063439453125,58.344Q77.319439453125,61.272,82.215439453125,61.272Q84.231439453125,61.272,86.919439453125,60.984Q89.607439453125,60.696,91.527439453125,60.312L92.967439453125,61.176L91.527439453125,75.192Q87.207439453125,75.96,80.775439453125,75.96Q67.335439453125,75.96,60.663439453125,69.576Q53.991439453125,63.192,53.991439453125,50.904Q53.991439453125,38.52,61.191439453125,31.704Q68.391439453125,24.888,81.639439453125,24.888ZM148.167439453125,58.872L148.839439453125,75L130.983439453125,75L131.847439453125,60.696L131.751439453125,57.912L124.071439453125,57.72L117.351439453125,57.912L117.351439453125,58.872L118.119439453125,75L100.263439453125,75L101.127439453125,60.696L100.263439453125,25.752L118.407439453125,25.752L117.831439453125,43.512L125.031439453125,43.704L131.463439453125,43.512L130.983439453125,25.752L149.127439453125,25.752L148.167439453125,58.872ZM197.415439453125,60.888L198.375439453125,62.04L197.319439453125,75L159.207439453125,75L160.071439453125,60.696L159.207439453125,25.752L197.991439453125,25.752L198.951439453125,27L197.895439453125,39.96L184.935439453125,39.384L176.871439453125,39.384L176.775439453125,43.608L184.455439453125,43.608L192.807439453125,43.32L193.767439453125,44.568L192.711439453125,57.528L183.303439453125,57.24L176.391439453125,57.24L176.295439453125,58.872L176.391439453125,61.368L183.975439453125,61.368L197.415439453125,60.888ZM229.671439453125,25.464Q241.287439453125,25.464,247.479439453125,31.368Q253.671439453125,37.272,253.671439453125,48.312Q253.671439453125,61.56,246.375439453125,68.664Q239.079439453125,75.768,225.447439453125,75.768Q218.535439453125,75.768,205.287439453125,75L206.151439453125,60.696L205.287439453125,25.752L229.671439453125,25.464ZM228.807439453125,62.616Q231.879439453125,62.616,233.463439453125,60.408Q235.047439453125,58.2,235.047439453125,52.728Q235.047439453125,47.448,234.423439453125,44.568Q233.799439453125,41.688,232.311439453125,40.488Q230.823439453125,39.288,228.135439453125,39.288Q226.119439453125,39.288,222.951439453125,39.576L222.375439453125,58.872L222.471439453125,61.848Q227.079439453125,62.616,228.807439453125,62.616ZM305.127439453125,50.712L305.031439453125,58.776Q304.935439453125,67.128,298.887439453125,71.592Q292.839439453125,76.056,281.607439453125,76.056Q270.759439453125,76.056,265.095439453125,71.592Q259.431439453125,67.128,259.719439453125,58.776L259.911439453125,50.808L259.431439453125,25.752L277.191439453125,25.752L276.423439453125,56.376Q276.327439453125,59.448,277.671439453125,60.744Q279.015439453125,62.04,282.375439453125,62.04Q285.735439453125,62.04,287.127439453125,60.744Q288.519439453125,59.448,288.423439453125,56.376L287.655439453125,25.752L305.703439453125,25.752L305.127439453125,50.712ZM347.367439453125,61.656L346.311439453125,75L314.343439453125,75L315.207439453125,60.696L314.343439453125,25.752L332.487439453125,25.752L331.431439453125,58.872L331.527439453125,60.504L346.407439453125,60.504L347.367439453125,61.656ZM391.623439453125,60.888L392.583439453125,62.04L391.527439453125,75L353.415439453125,75L354.279439453125,60.696L353.415439453125,25.752L392.199439453125,25.752L393.159439453125,27L392.103439453125,39.96L379.143439453125,39.384L371.079439453125,39.384L370.983439453125,43.608L378.663439453125,43.608L387.015439453125,43.32L387.975439453125,44.568L386.919439453125,57.528L377.511439453125,57.24L370.599439453125,57.24L370.503439453125,58.872L370.599439453125,61.368L378.183439453125,61.368L391.623439453125,60.888Z" fill="url(#master_svg1_30_0362)" fill-opacity="1"/><path d="M49.936639453125,12.3506Q40.509139453125,8.80257,30.855439453125,8.80257Q22.705639453125,8.80256,16.251939453125,11.8707Q9.670629453125,14.9995,5.958109453125,20.5137Q2.194005453125,26.1045,2.194005453125,33.048Q2.1940044531250003,39.2454,5.212749453124999,43.5994Q8.065009453125,47.7132,12.007839453125,50.1011Q15.583039453125,52.2664,21.039639453125,54.6475Q25.403839453125,56.5568,27.247239453125,57.8Q28.018039453125,58.3199,28.018039453125,58.776L27.976439453125,58.6965Q27.563239453125,59.0106,25.863439453125,59.0106Q23.055839453125,59.0106,18.530439453125,57.2435Q13.872939453125,55.4249,9.783699453125,52.3135L8.202219453125,51.1102L3.416619453125,53.9815L0.00005945312499999744,74.4809L2.360935453125,75.2819Q13.571339453125,79.0854,23.847439453125,79.0854Q32.371539453124996,79.0854,38.914239453125,76.0251Q45.599239453125,72.8983,49.268839453125,67.4761Q51.383039453125,64.3522,52.295639453125,60.8217Q54.120439453125,67.3753,58.635439453125,71.6955Q66.158139453125,78.8934,80.775439453125,78.8934Q87.466139453125,78.8934,92.040839453125,78.0801L94.219339453125,77.6929L96.076139453125,59.6203L92.064239453125,57.2131L90.952139453125,57.4355Q89.162639453125,57.7934,86.606939453125,58.0673Q84.074739453125,58.3386,82.215439453125,58.3386Q78.762439453125,58.3386,77.387139453125,56.5536Q75.740839453125,54.417,75.740839453125,48.792Q75.740839453125,44.6249,76.874639453125,43.3458Q77.871239453125,42.2214,80.967439453125,42.2214Q82.864639453125,42.2214,85.248839453125,42.7323Q87.631939453125,43.243,89.267639453125,43.9791L90.747939453125,44.6452L94.246739453125,42.3127L97.372139453125,27.4922L98.191839453125,60.6437L97.147439453125,77.9334L121.195439453125,77.9334L120.378439453125,60.7602L124.076439453125,60.6545L128.903439453125,60.7752L127.867439453125,77.9334L151.897439453125,77.9334L151.102439453125,58.8532L152.147439453125,22.8186L127.969439453125,22.8186L128.452439453125,40.6671L125.026439453125,40.7694L120.859439453125,40.6583L121.437439453125,22.8186L97.256539453125,22.8186L97.287539453125,24.0723L95.310939453125,23.5781Q88.816539453125,21.9546,81.639439453125,21.9546Q67.223139453125,21.9546,59.174739453125,29.5737Q52.267939453125,36.1122,51.238339453125,46.968Q50.642539453125,45.7391,49.844039453125,44.63Q46.897039453125,40.537,42.919539453125,38.1615Q39.314139453125,36.0083,33.805639453125,33.5493Q29.401539453125,31.5308,27.620839453125,30.3581Q27.110339453125,30.0219,27.002039453125,29.7995Q27.565239453125,29.4534,28.839439453125,29.4534Q30.719639453125,29.4534,34.167539453125,30.7149Q37.822139453125,32.0519,41.599439453125,34.3902L42.896639453125,35.1932L48.411339453125,32.8298L52.260139453125,13.225L49.936639453125,12.3506ZM120.763439453125,43.5902L117.831439453125,43.512L117.926439453125,40.5801L118.312439453125,28.6854L118.407439453125,25.752L100.263439453125,25.752L100.335939453125,28.6854L101.127439453125,60.696L100.440639453125,72.0666L100.263439453125,75L118.119439453125,75L117.979439453125,72.0666L117.445439453125,60.8439L117.420439453125,60.312L117.351439453125,58.872L117.351439453125,57.912L124.071439453125,57.72L131.751439453125,57.912L131.847439453125,60.696L131.160439453125,72.0666L130.983439453125,75L148.839439453125,75L148.717439453125,72.0666L148.167439453125,58.872L149.042439453125,28.6854L149.127439453125,25.752L130.983439453125,25.752L131.062439453125,28.6854L131.463439453125,43.512L125.031439453125,43.704L120.763439453125,43.5902ZM48.903439453125,15.096Q39.975439453125,11.736,30.855439453125,11.736Q23.367439453125,11.736,17.511439453125,14.52Q11.655439453125,17.304,8.391439453124999,22.152Q5.127439453125,27,5.127439453125,33.048Q5.127439453125,38.328,7.623439453125,41.928Q10.119439453125,45.528,13.527439453125,47.592Q16.935439453125,49.656,22.215439453125,51.96Q26.823439453125,53.976,28.887439453125,55.368Q30.951439453125,56.76,30.951439453125,58.776Q30.951439453125,60.12,29.751439453125,61.032Q28.551439453125,61.944,25.863439453125,61.944Q22.503439453125,61.944,17.463439453124998,59.976Q12.423439453125,58.008,8.007439453125,54.648L6.087439453125,55.8L3.3034394531249998,72.504Q14.055439453125,76.152,23.847439453125,76.152Q31.719439453125,76.152,37.671439453125,73.368Q43.623439453125,70.584,46.839439453125,65.832Q50.055439453125,61.08,50.055439453125,55.224Q50.055439453125,49.944,47.463439453125,46.344Q44.871439453125,42.744,41.415439453125,40.68Q37.959439453125,38.616,32.583439453124996,36.216Q27.975439453125,34.104,26.007439453125,32.808Q24.039439453125,31.512,24.039439453125,29.688Q24.039439453125,28.248,25.335439453125,27.384Q26.631439453125,26.52,28.839439453125,26.52Q31.239439453125,26.52,35.175439453125,27.96Q39.111439453125,29.4,43.143439453125,31.896L45.831439453125,30.744L48.903439453125,15.096ZM249.503439453125,29.245Q242.461439453125,22.5306,229.671439453125,22.5306L229.636439453125,22.5308L202.281439453125,22.8539L203.215439453125,60.6438L202.182439453125,77.7583L205.117439453125,77.9285Q218.450439453125,78.7014,225.447439453125,78.7014Q240.271439453125,78.7014,248.421439453125,70.7657Q256.604439453125,62.7981,256.604439453125,48.312Q256.604439453125,36.0158,249.503439453125,29.245ZM206.151439453125,60.696L205.464439453125,72.0719L205.287439453125,75Q206.792439453125,75.0873,208.216439453125,75.1646Q219.320439453125,75.768,225.447439453125,75.768Q239.079439453125,75.768,246.375439453125,68.664Q253.671439453125,61.56,253.671439453125,48.312Q253.671439453125,37.272,247.479439453125,31.368Q241.287439453125,25.464,229.671439453125,25.464L208.220439453125,25.7174L205.287439453125,25.752L205.360439453125,28.6848L206.151439453125,60.696ZM201.396439453125,61.0832L199.669439453125,59.0101L198.748439453125,57.9051L195.614439453125,58.017L196.783439453125,43.6773L196.121439453125,42.8175L200.589439453125,43.0161L201.967439453125,26.1093L199.435439453125,22.8186L156.200439453125,22.8186L157.135439453125,60.6438L156.091439453125,77.9334L200.023439453125,77.9334L201.396439453125,61.0832ZM160.071439453125,60.696L159.384439453125,72.0666L159.207439453125,75L197.319439453125,75L198.375439453125,62.04L197.415439453125,60.888L183.975439453125,61.368L176.391439453125,61.368L176.295439453125,58.872L176.391439453125,57.24L183.303439453125,57.24L192.711439453125,57.528L193.767439453125,44.568L192.807439453125,43.32L184.455439453125,43.608L176.775439453125,43.608L176.842439453125,40.6746L176.871439453125,39.384L184.935439453125,39.384L197.895439453125,39.96L198.951439453125,27L197.991439453125,25.752L159.207439453125,25.752L159.280439453125,28.6854L160.071439453125,60.696ZM308.060439453125,50.7797L308.060439453125,50.7469L308.705439453125,22.8186L284.647439453125,22.8186L285.491439453125,56.4676Q285.545439453125,58.2085,285.128439453125,58.597Q284.581439453125,59.1066,282.375439453125,59.1066Q280.199439453125,59.1066,279.707439453125,58.6324Q279.300439453125,58.2394,279.355439453125,56.4495L280.199439453125,22.8186L256.441439453125,22.8186L256.977439453125,50.8011L256.787439453125,58.6749Q256.448439453125,68.512,263.279439453125,73.8959Q269.742439453125,78.9894,281.607439453125,78.9894Q293.804439453125,78.9894,300.629439453125,73.9522Q307.852439453125,68.6213,307.964439453125,58.8109L308.060439453125,50.7797ZM259.911439453125,50.808L259.719439453125,58.776Q259.431439453125,67.128,265.095439453125,71.592Q270.759439453125,76.056,281.607439453125,76.056Q292.839439453125,76.056,298.887439453125,71.592Q304.935439453125,67.128,305.031439453125,58.776L305.127439453125,50.712L305.635439453125,28.6854L305.703439453125,25.752L287.655439453125,25.752L287.729439453125,28.6854L288.423439453125,56.376Q288.519439453125,59.448,287.127439453125,60.744Q285.735439453125,62.04,282.375439453125,62.04Q279.015439453125,62.04,277.671439453125,60.744Q276.327439453125,59.448,276.423439453125,56.376L277.117439453125,28.6854L277.191439453125,25.752L259.431439453125,25.752L259.487439453125,28.6854L259.911439453125,50.808ZM349.021439453125,77.9334L350.291439453125,61.8874L350.386439453125,60.6961L347.781439453125,57.5706L334.407439453125,57.5706L335.515439453125,22.8186L311.336439453125,22.8186L312.271439453125,60.6438L311.227439453125,77.9334L349.021439453125,77.9334ZM315.207439453125,60.696L314.520439453125,72.0666L314.343439453125,75L346.311439453125,75L347.367439453125,61.656L346.407439453125,60.504L331.527439453125,60.504L331.431439453125,58.872L332.394439453125,28.6854L332.487439453125,25.752L314.343439453125,25.752L314.416439453125,28.6854L315.207439453125,60.696ZM395.604439453125,61.0832L393.877439453125,59.0101L392.956439453125,57.9051L389.822439453125,58.017L390.991439453125,43.6772L390.329439453125,42.8175L394.797439453125,43.0161L396.175439453125,26.1093L393.643439453125,22.8186L350.408439453125,22.8186L351.343439453125,60.6438L350.299439453125,77.9334L394.231439453125,77.9334L395.604439453125,61.0832ZM354.279439453125,60.696L353.592439453125,72.0666L353.415439453125,75L391.527439453125,75L392.583439453125,62.04L391.623439453125,60.888L378.183439453125,61.368L370.599439453125,61.368L370.503439453125,58.872L370.599439453125,57.24L377.511439453125,57.24L386.919439453125,57.528L387.975439453125,44.568L387.015439453125,43.32L378.663439453125,43.608L370.983439453125,43.608L371.050439453125,40.6746L371.079439453125,39.384L379.143439453125,39.384L392.103439453125,39.96L393.159439453125,27L392.199439453125,25.752L353.415439453125,25.752L353.488439453125,28.6854L354.279439453125,60.696ZM94.599439453125,26.424Q88.455439453125,24.888,81.639439453125,24.888Q68.391439453125,24.888,61.191439453125,31.704Q53.991439453125,38.52,53.991439453125,50.904Q53.991439453125,63.192,60.663439453125,69.576Q67.335439453125,75.96,80.775439453125,75.96Q87.207439453125,75.96,91.527439453125,75.192L92.967439453125,61.176L91.527439453125,60.312Q89.607439453125,60.696,86.919439453125,60.984Q84.231439453125,61.272,82.215439453125,61.272Q77.319439453125,61.272,75.063439453125,58.344Q72.807439453125,55.416,72.807439453125,48.792Q72.807439453125,43.512,74.679439453125,41.4Q76.551439453125,39.288,80.967439453125,39.288Q83.175439453125,39.288,85.863439453125,39.864Q88.551439453125,40.44,90.471439453125,41.304L91.623439453125,40.536L94.599439453125,26.424ZM233.463439453125,60.408Q231.879439453125,62.616,228.807439453125,62.616Q227.079439453125,62.616,222.471439453125,61.848L222.375439453125,58.872L222.951439453125,39.576Q226.119439453125,39.288,228.135439453125,39.288Q230.823439453125,39.288,232.311439453125,40.488Q233.799439453125,41.688,234.423439453125,44.568Q235.047439453125,47.448,235.047439453125,52.728Q235.047439453125,58.2,233.463439453125,60.408ZM225.804439453125,42.2996Q227.133439453125,42.2214,228.135439453125,42.2214Q229.788439453125,42.2214,230.470439453125,42.7714Q231.151439453125,43.3213,231.556439453125,45.1892Q232.114439453125,47.7621,232.114439453125,52.728Q232.114439453125,57.2566,231.079439453125,58.6981Q230.373439453125,59.6826,228.807439453125,59.6826Q227.769439453125,59.6826,225.325439453125,59.3272L225.310439453125,58.8683L225.804439453125,42.2996Z" fill-rule="evenodd" fill="#2B2B2B" fill-opacity="1"/></g></g></svg>