<svg xmlns="http://www.w3.org/2000/svg" xmlns:xlink="http://www.w3.org/1999/xlink" fill="none" version="1.1" width="237.6006054878235" height="109.60060548782349" viewBox="0 0 237.6006054878235 109.60060548782349"><defs><filter id="master_svg0_30_0554" filterUnits="objectBoundingBox" color-interpolation-filters="sRGB" x="0" y="0" width="231.73373699188232" height="103.73373699188232"><feFlood flood-opacity="0" result="BackgroundImageFix"/><feColorMatrix in="SourceAlpha" type="matrix" values="0 0 0 0 0 0 0 0 0 0 0 0 0 0 0 0 0 0 127 0"/><feOffset dy="11.733736991882324" dx="11.733736991882324"/><feGaussianBlur stdDeviation="0"/><feColorMatrix type="matrix" values="0 0 0 0 0.20229491591453552 0 0 0 0 0.198384627699852 0 0 0 0 0.1894473433494568 0 0 0 1 0"/><feBlend mode="normal" in2="BackgroundImageFix" result="effect1_dropShadow"/><feBlend mode="normal" in="SourceGraphic" in2="effect1_dropShadow" result="shape"/></filter><linearGradient x1="112.93344736099243" y1="2.9334342479705784" x2="112.93344736099243" y2="129.29146313667297" gradientUnits="userSpaceOnUse" id="master_svg1_30_0362"><stop offset="0%" stop-color="#ABF8FF" stop-opacity="1"/><stop offset="100%" stop-color="#CF4DFF" stop-opacity="1"/></linearGradient></defs><g filter="url(#master_svg0_30_0554)"><path d="M52.98143424797058,30.60543424797058L52.69343424797058,41.74143424797058L59.22143424797058,41.74143424797058L70.35743424797059,41.453434247970584L71.41343424797059,42.79743424797058L70.26143424797058,56.813434247970584L57.877434247970584,56.52543424797058L52.30943424797058,56.52543424797058L52.30943424797058,57.773434247970584L53.07743424797058,77.93343424797058L33.78143424797058,77.93343424797058L34.74143424797058,59.69343424797058L33.78143424797058,15.821434247970581L75.25343424797057,15.821434247970581L76.30943424797059,17.16543424797058L75.06143424797058,31.181434247970582L59.70143424797058,30.60543424797058L52.98143424797058,30.60543424797058ZM133.4294342479706,77.93343424797058L113.94143424797058,77.93343424797058L112.21343424797058,67.66143424797058L112.11743424797058,67.37343424797058L102.70943424797058,67.18143424797059L94.83743424797058,67.56543424797059L93.20543424797059,77.93343424797058L74.38943424797058,77.93343424797058L93.20543424797059,15.821434247970581L116.43743424797059,15.821434247970581L133.4294342479706,77.93343424797058ZM109.23743424797058,53.35743424797058L105.01343424797058,33.005434247970584L103.86143424797058,33.005434247970584L98.48543424797059,53.35743424797058L103.86143424797058,53.453434247970584L109.23743424797058,53.35743424797058ZM205.5254342479706,85.42143424797058Q201.7814342479706,92.81343424797058,196.3094342479706,97.61343424797059L194.9654342479706,98.28543424797058Q178.4534342479706,89.93343424797058,165.87743424797057,79.08543424797058L164.34143424797057,79.08543424797058Q150.8054342479706,79.08543424797058,143.41343424797057,70.97343424797059Q136.02143424797057,62.86143424797058,136.02143424797057,47.98143424797058Q136.02143424797057,32.045434247970576,144.13343424797057,23.35743424797058Q152.2454342479706,14.669434247970582,167.1254342479706,14.669434247970582Q180.6614342479706,14.669434247970582,188.05343424797059,22.68543424797058Q195.44543424797058,30.70143424797058,195.44543424797058,45.29343424797058Q195.44543424797058,55.37343424797058,192.18143424797057,62.71743424797058Q188.9174342479706,70.06143424797058,182.67743424797058,74.18943424797058Q193.90943424797058,80.04543424797058,204.7574342479706,83.69343424797059L205.5254342479706,85.42143424797058ZM156.18143424797057,45.389434247970584Q156.18143424797057,53.35743424797058,157.04543424797058,57.48543424797058Q157.90943424797058,61.61343424797058,159.97343424797057,63.24543424797058Q162.0374342479706,64.87743424797058,166.06943424797058,64.87743424797058Q169.81343424797058,64.87743424797058,171.7334342479706,63.581434247970584Q173.65343424797058,62.28543424797058,174.46943424797058,58.97343424797058Q175.28543424797058,55.66143424797058,175.28543424797058,49.42143424797058Q175.28543424797058,41.54943424797058,174.42143424797058,37.42143424797058Q173.55743424797058,33.29343424797058,171.49343424797058,31.661434247970583Q169.4294342479706,30.02943424797058,165.39743424797058,30.02943424797058Q161.65343424797058,30.02943424797058,159.7334342479706,31.32543424797058Q157.81343424797058,32.62143424797058,156.99743424797057,35.88543424797058Q156.18143424797057,39.14943424797058,156.18143424797057,45.389434247970584Z" fill="url(#master_svg1_30_0362)" fill-opacity="1"/><path d="M198.24343424797058,99.81863424797058Q204.14243424797058,94.64473424797058,208.14243424797058,86.74693424797059L208.77243424797058,85.50363424797058L206.91443424797058,81.32393424797058L205.69243424797057,80.91303424797059Q197.02243424797058,77.99733424797058,188.08743424797058,73.63473424797058Q192.3094342479706,69.65243424797058,194.86243424797058,63.90883424797058Q198.37843424797057,55.99593424797058,198.37843424797057,45.29343424797058Q198.37843424797057,29.55533424797058,190.2094342479706,20.696834247970582Q181.9464342479706,11.73600424797058,167.1254342479706,11.73600424797058Q150.9714342479706,11.73599424797058,141.9894342479706,21.35543424797058Q133.08843424797058,30.888834247970582,133.08843424797058,47.98143424797058Q133.08843424797058,63.997534247970584,141.2454342479706,72.94923424797058Q149.50943424797057,82.01883424797059,164.34143424797057,82.01883424797059L164.79443424797057,82.01883424797059Q177.3524342479706,92.66383424797058,193.64143424797058,100.90303424797058L194.95743424797058,101.56893424797057L197.9594342479706,100.06803424797059L198.24343424797058,99.81863424797058ZM165.87743424797057,79.08543424797058Q178.4534342479706,89.93343424797058,194.9654342479706,98.28543424797058L196.3094342479706,97.61343424797059Q201.7814342479706,92.81343424797058,205.5254342479706,85.42143424797058L204.7574342479706,83.69343424797059Q195.3404342479706,80.52653424797059,185.63343424797057,75.69563424797059Q184.15843424797058,74.96163424797058,182.67743424797058,74.18943424797058Q184.04443424797057,73.28503424797059,185.2684342479706,72.22613424797058Q189.6324342479706,68.45233424797058,192.18143424797057,62.71743424797058Q195.44543424797058,55.37343424797058,195.44543424797058,45.29343424797058Q195.44543424797058,30.70143424797058,188.05343424797059,22.68543424797058Q180.6614342479706,14.669434247970582,167.1254342479706,14.669434247970582Q152.2454342479706,14.669434247970582,144.13343424797057,23.35743424797058Q136.02143424797057,32.045434247970576,136.02143424797057,47.98143424797058Q136.02143424797057,62.86143424797058,143.41343424797057,70.97343424797059Q150.8054342479706,79.08543424797058,164.34143424797057,79.08543424797058L165.87743424797057,79.08543424797058ZM52.98143424797058,30.60543424797058L52.76933424797058,38.80803424797058L52.69343424797058,41.74143424797058L59.22143424797058,41.74143424797058L70.35743424797059,41.453434247970584L71.41343424797059,42.79743424797058L70.26143424797058,56.813434247970584L57.877434247970584,56.52543424797058L52.30943424797058,56.52543424797058L52.30943424797058,57.773434247970584L52.37363424797058,59.45883424797058L52.965634247970584,75.00003424797058L53.07743424797058,77.93343424797058L33.78143424797058,77.93343424797058L33.93583424797058,75.00003424797058L34.74143424797058,59.69343424797058L33.84563424797058,18.75483424797058L33.78143424797058,15.821434247970581L75.25343424797057,15.821434247970581L76.30943424797059,17.16543424797058L75.06143424797058,31.181434247970582L59.70143424797058,30.60543424797058L52.98143424797058,30.60543424797058ZM59.64643424797058,33.538834247970584L77.73613424797058,34.21723424797058L79.33443424797058,16.26743424797058L76.67923424797058,12.888004247970581L30.78313424797058,12.888004247970581L31.806334247970582,59.64833424797058L30.68953424797058,80.86683424797059L56.12473424797058,80.86683424797059L55.30923424797058,59.45883424797058L57.84343424797058,59.45883424797058L72.95843424797059,59.81033424797058L74.43133424797058,41.89033424797058L71.75403424797058,38.48293424797058L59.183534247970584,38.80803424797058L55.70373424797058,38.80803424797058L55.83993424797058,33.538834247970584L59.64643424797058,33.538834247970584ZM111.46043424797058,80.86683424797059L137.27343424797058,80.86683424797059L118.67643424797058,12.888004247970581L91.02903424797059,12.888004247970581L70.43573424797059,80.86683424797059L95.71323424797058,80.86683424797059L97.36403424797058,70.37913424797058L102.75103424797058,70.11633424797058L109.67543424797059,70.25763424797059L111.46043424797058,80.86683424797059ZM112.21343424797058,67.66143424797058L113.94143424797058,77.93343424797058L133.4294342479706,77.93343424797058L132.6264342479706,75.00003424797058L116.43743424797059,15.821434247970581L93.20543424797059,15.821434247970581L75.27803424797058,75.00003424797058L74.38943424797058,77.93343424797058L93.20543424797059,77.93343424797058L94.83743424797058,67.56543424797059L102.70943424797058,67.18143424797059L112.11743424797058,67.37343424797058L112.21343424797058,67.66143424797058ZM157.04543424797058,57.48543424797058Q156.18143424797057,53.35743424797058,156.18143424797057,45.389434247970584Q156.18143424797057,39.14943424797058,156.99743424797057,35.88543424797058Q157.81343424797058,32.62143424797058,159.7334342479706,31.32543424797058Q161.65343424797058,30.02943424797058,165.39743424797058,30.02943424797058Q169.4294342479706,30.02943424797058,171.49343424797058,31.661434247970583Q173.55743424797058,33.29343424797058,174.42143424797058,37.42143424797058Q175.28543424797058,41.54943424797058,175.28543424797058,49.42143424797058Q175.28543424797058,55.66143424797058,174.46943424797058,58.97343424797058Q173.65343424797058,62.28543424797058,171.7334342479706,63.581434247970584Q169.81343424797058,64.87743424797058,166.06943424797058,64.87743424797058Q162.0374342479706,64.87743424797058,159.97343424797057,63.24543424797058Q157.90943424797058,61.61343424797058,157.04543424797058,57.48543424797058ZM159.91643424797059,56.88443424797058Q159.1144342479706,53.05373424797058,159.1144342479706,45.389434247970584Q159.1144342479706,39.51053424797058,159.84343424797058,36.59693424797058Q160.38643424797058,34.423734247970586,161.37443424797058,33.75683424797058Q162.55043424797057,32.96283424797058,165.39743424797058,32.96283424797058Q168.40943424797058,32.96283424797058,169.6744342479706,33.96243424797058Q170.90443424797058,34.935034247970584,171.55043424797057,38.02243424797058Q172.3524342479706,41.85313424797058,172.3524342479706,49.42143424797058Q172.3524342479706,55.30543424797058,171.62143424797057,58.27173424797058Q171.07543424797058,60.48633424797058,170.09243424797057,61.15003424797058Q168.91643424797059,61.94403424797058,166.06943424797058,61.94403424797058Q163.05743424797058,61.94403424797058,161.7924342479706,60.944434247970584Q160.56243424797057,59.971834247970584,159.91643424797059,56.88443424797058ZM109.23743424797058,53.35743424797058L108.63043424797058,50.43433424797058L105.84143424797058,36.99533424797058L105.08043424797059,33.32733424797058L105.01343424797058,33.005434247970584L103.86143424797058,33.005434247970584L103.79443424797059,33.258434247970584L102.82883424797058,36.91463424797058L99.25673424797058,50.43733424797058L98.48543424797059,53.35743424797058L101.50523424797058,53.41133424797058L103.86143424797058,53.453434247970584L106.25243424797058,53.41073424797058L109.23743424797058,53.35743424797058ZM102.27663424797058,50.49123424797058L103.86143424797058,50.51953424797058L105.64543424797058,50.48763424797058L104.16343424797059,43.346834247970584L102.27663424797058,50.49123424797058Z" fill-rule="evenodd" fill="#2B2B2B" fill-opacity="1"/></g></svg>