<svg xmlns="http://www.w3.org/2000/svg" xmlns:xlink="http://www.w3.org/1999/xlink" fill="none" version="1.1" width="425.20263671875" height="92" viewBox="0 0 425.20263671875 92"><defs><filter id="master_svg0_30_0727" filterUnits="objectBoundingBox" color-interpolation-filters="sRGB" x="0" y="0" width="424.7337369918823" height="103.73373699188232"><feFlood flood-opacity="0" result="BackgroundImageFix"/><feColorMatrix in="SourceAlpha" type="matrix" values="0 0 0 0 0 0 0 0 0 0 0 0 0 0 0 0 0 0 127 0"/><feOffset dy="11.733736991882324" dx="11.733736991882324"/><feGaussianBlur stdDeviation="0"/><feColorMatrix type="matrix" values="0 0 0 0 0.20229491591453552 0 0 0 0 0.198384627699852 0 0 0 0 0.1894473433494568 0 0 0 1 0"/><feBlend mode="normal" in2="BackgroundImageFix" result="effect1_dropShadow"/><feBlend mode="normal" in="SourceGraphic" in2="effect1_dropShadow" result="shape"/></filter><linearGradient x1="208.0754640698433" y1="-2.8166838037138356e-15" x2="208.0754640698433" y2="126.35802888870239" gradientUnits="userSpaceOnUse" id="master_svg1_30_0362"><stop offset="0%" stop-color="#ABF8FF" stop-opacity="1"/><stop offset="100%" stop-color="#CF4DFF" stop-opacity="1"/></linearGradient></defs><g><g filter="url(#master_svg0_30_0727)"><path d="M30.855439453125,11.736Q39.975439453125,11.736,48.903439453125,15.096L45.831439453125,30.744L43.143439453125,31.896Q39.111439453125,29.4,35.175439453125,27.96Q31.239439453125,26.52,28.839439453125,26.52Q26.631439453125,26.52,25.335439453125,27.384Q24.039439453125,28.248,24.039439453125,29.688Q24.039439453125,31.512,26.007439453125,32.808Q27.975439453125,34.104,32.583439453124996,36.216Q37.959439453125,38.616,41.415439453125,40.68Q44.871439453125,42.744,47.463439453125,46.344Q50.055439453125,49.944,50.055439453125,55.224Q50.055439453125,61.08,46.839439453125,65.832Q43.623439453125,70.584,37.671439453125,73.368Q31.719439453125,76.152,23.847439453125,76.152Q14.055439453125,76.152,3.3034394531249998,72.504L6.087439453125,55.8L8.007439453125,54.648Q12.423439453125,58.008,17.463439453124998,59.976Q22.503439453125,61.944,25.863439453125,61.944Q28.551439453125,61.944,29.751439453125,61.032Q30.951439453125,60.12,30.951439453125,58.776Q30.951439453125,56.76,28.887439453125,55.368Q26.823439453125,53.976,22.215439453125,51.96Q16.935439453125,49.656,13.527439453125,47.592Q10.119439453125,45.528,7.623439453125,41.928Q5.127439453125,38.328,5.127439453125,33.048Q5.127439453125,27,8.391439453124999,22.152Q11.655439453125,17.304,17.511439453125,14.52Q23.367439453125,11.736,30.855439453125,11.736ZM83.655439453125,25.752Q92.583439453125,25.752,97.431439453125,29.928Q102.279439453125,34.104,102.279439453125,41.784Q102.279439453125,47.736,99.255439453125,52.344Q96.231439453125,56.952,90.759439453125,59.496Q85.287439453125,62.04,78.183439453125,62.04L74.631439453125,62.04L75.207439453125,75L57.351439453125,75L58.215439453125,60.696L57.351439453125,25.752L83.655439453125,25.752ZM80.391439453125,49.752Q82.119439453125,48.408,82.839439453125,47.064Q83.559439453125,45.72,83.559439453125,43.512Q83.559439453125,40.632,82.071439453125,39.384Q80.583439453125,38.136,77.223439453125,37.944L75.111439453125,38.136L74.727439453125,49.368L80.391439453125,49.752ZM131.079439453125,24.792Q142.599439453125,24.792,148.887439453125,31.128Q155.175439453125,37.464,155.175439453125,49.08Q155.175439453125,61.944,148.215439453125,69Q141.255439453125,76.056,128.58343945312498,76.056Q117.063439453125,76.056,110.775439453125,69.576Q104.487439453125,63.096,104.487439453125,51.384Q104.487439453125,38.712,111.447439453125,31.752Q118.407439453125,24.792,131.079439453125,24.792ZM129.447439453125,38.904Q126.759439453125,38.904,125.463439453125,39.624Q124.167439453125,40.344,123.639439453125,42.456Q123.111439453125,44.568,123.111439453125,48.984Q123.111439453125,55.032,123.687439453125,57.912Q124.263439453125,60.792,125.703439453125,61.848Q127.143439453125,62.904,130.215439453125,62.904Q132.999439453125,62.904,134.295439453125,62.184Q135.591439453125,61.464,136.071439453125,59.4Q136.551439453125,57.336,136.551439453125,52.92Q136.551439453125,46.776,136.023439453125,43.896Q135.495439453125,41.016,134.007439453125,39.96Q132.519439453125,38.904,129.447439453125,38.904ZM209.991439453125,58.488L210.663439453125,75L191.271439453125,75L178.599439453125,52.344L177.639439453125,52.344L177.543439453125,56.76L178.215439453125,75L162.087439453125,75L162.951439453125,60.6L162.087439453125,25.752L181.479439453125,25.752L194.151439453125,48.408L195.207439453125,48.408L194.631439453125,26.424L210.951439453125,25.464L209.991439453125,58.488ZM241.767439453125,24.792Q249.543439453125,24.792,256.935439453125,27.384L254.343439453125,42.168L251.847439453125,42.84Q248.487439453125,40.632,244.887439453125,39.288Q241.287439453125,37.944,239.271439453125,37.944Q237.255439453125,37.944,237.255439453125,39.192Q237.255439453125,40.44,238.647439453125,41.208Q240.039439453125,41.976,243.303439453125,43.224Q247.623439453125,44.76,250.551439453125,46.344Q253.479439453125,47.928,255.639439453125,50.952Q257.799439453125,53.976,257.799439453125,58.68Q257.799439453125,63.288,255.543439453125,67.224Q253.287439453125,71.16,248.295439453125,73.656Q243.303439453125,76.152,235.623439453125,76.152Q226.983439453125,76.152,218.247439453125,73.464L220.839439453125,58.008L222.471439453125,56.76Q226.215439453125,59.736,230.631439453125,61.656Q235.047439453125,63.576,237.927439453125,63.576Q240.231439453125,63.576,240.231439453125,62.04Q240.231439453125,60.888,238.935439453125,60.168Q237.639439453125,59.448,234.375439453125,58.2Q230.055439453125,56.664,227.079439453125,55.032Q224.103439453125,53.4,221.895439453125,50.28Q219.687439453125,47.16,219.687439453125,42.36Q219.687439453125,37.368,222.279439453125,33.384Q224.871439453125,29.4,229.863439453125,27.096Q234.855439453125,24.792,241.767439453125,24.792ZM289.287439453125,24.792Q300.807439453125,24.792,307.095439453125,31.128Q313.383439453125,37.464,313.383439453125,49.08Q313.383439453125,61.944,306.423439453125,69Q299.463439453125,76.056,286.791439453125,76.056Q275.271439453125,76.056,268.983439453125,69.576Q262.695439453125,63.096,262.695439453125,51.384Q262.695439453125,38.712,269.655439453125,31.752Q276.615439453125,24.792,289.287439453125,24.792ZM287.655439453125,38.904Q284.967439453125,38.904,283.671439453125,39.624Q282.375439453125,40.344,281.847439453125,42.456Q281.319439453125,44.568,281.319439453125,48.984Q281.319439453125,55.032,281.895439453125,57.912Q282.471439453125,60.792,283.911439453125,61.848Q285.351439453125,62.904,288.423439453125,62.904Q291.207439453125,62.904,292.503439453125,62.184Q293.799439453125,61.464,294.279439453125,59.4Q294.759439453125,57.336,294.759439453125,52.92Q294.759439453125,46.776,294.231439453125,43.896Q293.703439453125,41.016,292.215439453125,39.96Q290.727439453125,38.904,287.655439453125,38.904ZM357.063439453125,55.896Q363.975439453125,65.688,368.199439453125,70.872L367.911439453125,72.792Q358.983439453125,75.384,350.535439453125,75.96L348.135439453125,74.136Q344.103439453125,65.4,342.279439453125,61.368L337.479439453125,61.368L338.151439453125,75L320.295439453125,75L321.159439453125,60.696L320.295439453125,25.752L346.599439453125,25.752Q355.527439453125,25.752,360.423439453125,29.736Q365.319439453125,33.72,365.319439453125,41.208Q365.319439453125,45.432,363.159439453125,49.224Q360.999439453125,53.016,357.063439453125,55.896ZM338.055439453125,38.136L337.671439453125,48.504L342.951439453125,48.888Q344.871439453125,47.928,345.687439453125,46.584Q346.503439453125,45.24,346.503439453125,43.032Q346.503439453125,40.44,345.063439453125,39.288Q343.623439453125,38.136,340.167439453125,37.944L338.055439453125,38.136ZM394.503439453125,24.792Q402.279439453125,24.792,409.671439453125,27.384L407.079439453125,42.168L404.583439453125,42.84Q401.223439453125,40.632,397.623439453125,39.288Q394.023439453125,37.944,392.007439453125,37.944Q389.991439453125,37.944,389.991439453125,39.192Q389.991439453125,40.44,391.383439453125,41.208Q392.775439453125,41.976,396.039439453125,43.224Q400.359439453125,44.76,403.287439453125,46.344Q406.215439453125,47.928,408.375439453125,50.952Q410.535439453125,53.976,410.535439453125,58.68Q410.535439453125,63.288,408.279439453125,67.224Q406.023439453125,71.16,401.031439453125,73.656Q396.039439453125,76.152,388.359439453125,76.152Q379.719439453125,76.152,370.983439453125,73.464L373.575439453125,58.008L375.207439453125,56.76Q378.951439453125,59.736,383.367439453125,61.656Q387.783439453125,63.576,390.663439453125,63.576Q392.967439453125,63.576,392.967439453125,62.04Q392.967439453125,60.888,391.671439453125,60.168Q390.375439453125,59.448,387.111439453125,58.2Q382.791439453125,56.664,379.815439453125,55.032Q376.839439453125,53.4,374.631439453125,50.28Q372.423439453125,47.16,372.423439453125,42.36Q372.423439453125,37.368,375.015439453125,33.384Q377.607439453125,29.4,382.599439453125,27.096Q387.591439453125,24.792,394.503439453125,24.792Z" fill="url(#master_svg1_30_0362)" fill-opacity="1"/><path d="M49.936639453125,12.3506Q40.509139453125,8.80257,30.855439453125,8.80257Q22.705639453125,8.80256,16.251939453125,11.8707Q9.670629453125,14.9995,5.958109453125,20.5137Q2.194005453125,26.1045,2.194005453125,33.048Q2.1940044531250003,39.2454,5.212749453124999,43.5994Q8.065009453125,47.7132,12.007839453125,50.1011Q15.583039453125,52.2664,21.039639453125,54.6475Q25.403839453125,56.5568,27.247239453125,57.8Q28.018039453125,58.3199,28.018039453125,58.776L27.976439453125,58.6965Q27.563239453125,59.0106,25.863439453125,59.0106Q23.055839453125,59.0106,18.530439453125,57.2435Q13.872939453125,55.4249,9.783699453125,52.3135L8.202219453125,51.1102L3.416619453125,53.9815L0.00005945312499999744,74.4809L2.360935453125,75.2819Q13.571339453125,79.0854,23.847439453125,79.0854Q32.371539453124996,79.0854,38.914239453125,76.0251Q45.599239453125,72.8983,49.268839453125,67.4761Q52.988839453125,61.9793,52.988839453125,55.224Q52.988839453125,48.9978,49.844039453125,44.63Q46.897039453125,40.537,42.919539453125,38.1615Q39.314139453125,36.0083,33.805639453125,33.5493Q29.401539453125,31.5308,27.620839453125,30.3581Q27.110339453125,30.0219,27.002039453125,29.7995Q27.565239453125,29.4534,28.839439453125,29.4534Q30.719639453125,29.4534,34.167539453125,30.7149Q37.822139453125,32.0519,41.599439453125,34.3902L42.896639453125,35.1932L48.411339453125,32.8298L52.260139453125,13.225L49.936639453125,12.3506ZM48.903439453125,15.096Q39.975439453125,11.736,30.855439453125,11.736Q23.367439453125,11.736,17.511439453125,14.52Q11.655439453125,17.304,8.391439453124999,22.152Q5.127439453125,27,5.127439453125,33.048Q5.127439453125,38.328,7.623439453125,41.928Q10.119439453125,45.528,13.527439453125,47.592Q16.935439453125,49.656,22.215439453125,51.96Q26.823439453125,53.976,28.887439453125,55.368Q30.951439453125,56.76,30.951439453125,58.776Q30.951439453125,60.12,29.751439453125,61.032Q28.551439453125,61.944,25.863439453125,61.944Q22.503439453125,61.944,17.463439453124998,59.976Q12.423439453125,58.008,8.007439453125,54.648L6.087439453125,55.8L3.3034394531249998,72.504Q14.055439453125,76.152,23.847439453125,76.152Q31.719439453125,76.152,37.671439453125,73.368Q43.623439453125,70.584,46.839439453125,65.832Q50.055439453125,61.08,50.055439453125,55.224Q50.055439453125,49.944,47.463439453125,46.344Q44.871439453125,42.744,41.415439453125,40.68Q37.959439453125,38.616,32.583439453124996,36.216Q27.975439453125,34.104,26.007439453125,32.808Q24.039439453125,31.512,24.039439453125,29.688Q24.039439453125,28.248,25.335439453125,27.384Q26.631439453125,26.52,28.839439453125,26.52Q31.239439453125,26.52,35.175439453125,27.96Q39.111439453125,29.4,43.143439453125,31.896L45.831439453125,30.744L48.903439453125,15.096ZM150.969439453125,29.0616Q143.821439453125,21.8586,131.079439453125,21.8586Q117.192439453125,21.8586,109.373439453125,29.6777Q106.440439453125,32.6105,104.607439453125,36.3968Q103.328439453125,31.1361,99.345939453125,27.7054Q93.672639453125,22.8186,83.655439453125,22.8186L54.344539453125,22.8186L55.279839453125,60.6438L54.235439453125,77.9334L78.274139453125,77.9334L77.698139453125,64.9734L78.183439453125,64.9734Q85.936039453125,64.9734,91.996139453125,62.156Q98.160139453125,59.2903,101.634439453125,54.0647Q102.310439453125,65.0651,108.670439453125,71.6188Q115.822439453125,78.9894,128.58343945312498,78.9894Q142.482439453125,78.9894,150.303439453125,71.06Q158.108439453125,63.1473,158.108439453125,49.08Q158.108439453125,36.2555,150.969439453125,29.0616ZM101.891439453125,45.8744Q102.058439453125,45.0336,102.153439453125,44.1611Q102.279439453125,43.0006,102.279439453125,41.784Q102.279439453125,34.104,97.431439453125,29.928Q92.583439453125,25.752,83.655439453125,25.752L57.351439453125,25.752L57.423939453125,28.6854L58.215439453125,60.696L57.528639453125,72.0666L57.351439453125,75L75.207439453125,75L75.077039453125,72.0666L74.761839453125,64.9734L74.631439453125,62.04L78.183439453125,62.04Q85.287439453125,62.04,90.759439453125,59.496Q96.231439453125,56.952,99.255439453125,52.344Q101.196539453125,49.3861,101.891439453125,45.8744ZM104.790439453125,46.3485Q104.487439453125,48.7421,104.487439453125,51.384Q104.487439453125,63.096,110.775439453125,69.576Q117.063439453125,76.056,128.58343945312498,76.056Q141.255439453125,76.056,148.215439453125,69Q155.175439453125,61.944,155.175439453125,49.08Q155.175439453125,37.464,148.887439453125,31.128Q142.599439453125,24.792,131.079439453125,24.792Q118.407439453125,24.792,111.447439453125,31.752Q106.476439453125,36.7229,105.055439453125,44.6074Q104.902439453125,45.4608,104.790439453125,46.3485ZM257.906439453125,24.6158Q250.042439453125,21.8586,241.767439453125,21.8586Q234.211439453125,21.8586,228.634439453125,24.4326Q222.874439453125,27.0911,219.820439453125,31.7843Q216.754439453125,36.4977,216.754439453125,42.36Q216.754439453125,48.093,219.501439453125,51.9745Q220.294439453125,53.0954,221.177439453125,54.0564L218.137439453125,56.3811L214.929439453125,75.5123L217.384439453125,76.2677Q226.542439453125,79.0854,235.623439453125,79.0854Q243.995439453125,79.0854,249.607439453125,76.2797Q255.391439453125,73.3875,258.088439453125,68.6827Q260.408439453125,64.6344,260.693439453125,59.9891Q262.336439453125,66.938,266.878439453125,71.6188Q274.030439453125,78.9894,286.791439453125,78.9894Q300.690439453125,78.9894,308.511439453125,71.06Q316.317439453125,63.1474,316.316439453125,49.08Q316.316439453125,36.2554,309.177439453125,29.0616Q302.029439453125,21.8586,289.287439453125,21.8586Q275.400439453125,21.8586,267.581439453125,29.6777Q259.762439453125,37.497,259.762439453125,51.384Q259.762439453125,52.015,259.779439453125,52.6324Q259.126439453125,50.7865,258.026439453125,49.247Q256.33343945312504,46.8772,254.215439453125,45.2405L256.91043945312504,44.5148L260.254439453125,25.4393L257.906439453125,24.6158ZM243.303439453125,43.224Q240.039439453125,41.976,238.647439453125,41.208Q237.255439453125,40.44,237.255439453125,39.192Q237.255439453125,37.944,239.271439453125,37.944Q241.287439453125,37.944,244.887439453125,39.288Q248.487439453125,40.632,251.847439453125,42.84L254.343439453125,42.168L256.935439453125,27.384Q249.543439453125,24.792,241.767439453125,24.792Q234.855439453125,24.792,229.863439453125,27.096Q224.871439453125,29.4,222.279439453125,33.384Q219.687439453125,37.368,219.687439453125,42.36Q219.687439453125,47.16,221.895439453125,50.28Q224.103439453125,53.4,227.079439453125,55.032Q230.055439453125,56.664,234.375439453125,58.2Q237.639439453125,59.448,238.935439453125,60.168Q240.231439453125,60.888,240.231439453125,62.04Q240.231439453125,63.576,237.927439453125,63.576Q235.047439453125,63.576,230.631439453125,61.656Q226.215439453125,59.736,222.471439453125,56.76L220.839439453125,58.008L220.668439453125,59.0285L220.661439453125,59.0686L218.247439453125,73.464Q226.983439453125,76.152,235.623439453125,76.152Q243.303439453125,76.152,248.295439453125,73.656Q253.287439453125,71.16,255.543439453125,67.224Q257.799439453125,63.288,257.799439453125,58.68Q257.799439453125,53.976,255.639439453125,50.952Q253.479439453125,47.928,250.551439453125,46.344Q247.623439453125,44.76,243.303439453125,43.224ZM410.642439453125,24.6158Q402.778439453125,21.8586,394.503439453125,21.8586Q386.947439453125,21.8586,381.370439453125,24.4326Q375.610439453125,27.0911,372.556439453125,31.7843Q369.490439453125,36.4978,369.490439453125,42.36Q369.490439453125,48.093,372.236439453125,51.9746Q373.030439453125,53.0953,373.913439453125,54.0564L370.873439453125,56.3811L369.052439453125,67.241Q365.744439453125,63.0296,361.043439453125,56.436Q363.902439453125,53.8462,365.708439453125,50.6759Q368.252439453125,46.2089,368.252439453125,41.208Q368.252439453125,32.3251,362.274439453125,27.4607Q356.570439453125,22.8186,346.599439453125,22.8186L317.288439453125,22.8186L318.223439453125,60.6438L317.179439453125,77.9334L341.233439453125,77.9334L340.580439453125,64.7007L345.775439453125,76.0268L349.636439453125,78.9615L350.735439453125,78.8866Q359.314439453125,78.3017,368.342439453125,75.7206L370.120439453125,76.2677Q379.278439453125,79.0854,388.359439453125,79.0854Q396.731439453125,79.0854,402.343439453125,76.2797Q408.127439453125,73.3875,410.824439453125,68.6827Q413.468439453125,64.0691,413.468439453125,58.68Q413.468439453125,53.0359,410.762439453125,49.247Q409.069439453125,46.8772,406.951439453125,45.2405L409.646439453125,44.5148L412.990439453125,25.4393L410.642439453125,24.6158ZM396.039439453125,43.224Q392.775439453125,41.976,391.383439453125,41.208Q389.991439453125,40.44,389.991439453125,39.192Q389.991439453125,37.944,392.007439453125,37.944Q394.023439453125,37.944,397.623439453125,39.288Q401.223439453125,40.632,404.583439453125,42.84L407.079439453125,42.168L409.671439453125,27.384Q402.279439453125,24.792,394.503439453125,24.792Q387.591439453125,24.792,382.599439453125,27.096Q377.607439453125,29.4,375.015439453125,33.384Q372.423439453125,37.368,372.423439453125,42.36Q372.423439453125,47.16,374.631439453125,50.28Q376.839439453125,53.4,379.815439453125,55.032Q382.791439453125,56.664,387.111439453125,58.2Q390.375439453125,59.448,391.671439453125,60.168Q392.967439453125,60.888,392.967439453125,62.04Q392.967439453125,63.576,390.663439453125,63.576Q387.783439453125,63.576,383.367439453125,61.656Q378.951439453125,59.736,375.207439453125,56.76L373.575439453125,58.008L373.404439453125,59.0285L373.397439453125,59.0686L370.983439453125,73.464Q379.719439453125,76.152,388.359439453125,76.152Q396.039439453125,76.152,401.031439453125,73.656Q406.023439453125,71.16,408.279439453125,67.224Q410.535439453125,63.288,410.535439453125,58.68Q410.535439453125,53.976,408.375439453125,50.952Q406.215439453125,47.928,403.287439453125,46.344Q400.359439453125,44.76,396.039439453125,43.224ZM342.279439453125,61.368Q344.103439453125,65.4,348.135439453125,74.136L350.535439453125,75.96Q358.983439453125,75.384,367.911439453125,72.792L368.199439453125,70.872Q363.975439453125,65.688,357.063439453125,55.896Q360.999439453125,53.016,363.159439453125,49.224Q365.319439453125,45.432,365.319439453125,41.208Q365.319439453125,33.72,360.423439453125,29.736Q355.527439453125,25.752,346.599439453125,25.752L320.295439453125,25.752L320.368439453125,28.6854L321.159439453125,60.696L320.472439453125,72.0666L320.295439453125,75L338.151439453125,75L338.006439453125,72.0666L337.624439453125,64.3014L337.479439453125,61.368L342.279439453125,61.368ZM209.991439453125,58.488L210.865439453125,28.4075L210.951439453125,25.464L208.011439453125,25.6369L194.631439453125,26.424L195.094439453125,44.0842L195.130439453125,45.4746L195.192439453125,47.8259L195.207439453125,48.408L194.151439453125,48.408L192.180439453125,44.8845L181.479439453125,25.752L162.087439453125,25.752L162.160439453125,28.6854L162.951439453125,60.6L162.263439453125,72.0666L162.087439453125,75L178.215439453125,75L178.107439453125,72.0666L177.543439453125,56.76L177.549439453125,56.4763L177.627439453125,52.8876L177.639439453125,52.344L178.599439453125,52.344L178.611439453125,52.3651L180.499439453125,55.7415L191.271439453125,75L210.663439453125,75L210.544439453125,72.0666L209.991439453125,58.488ZM180.674439453125,62.0627L181.259439453125,77.9334L158.972439453125,77.9334L160.015439453125,60.5485L159.080439453125,22.8186L183.199439453125,22.8186L192.015439453125,38.5799L191.624439453125,23.6624L213.976439453125,22.3475L212.926439453125,58.471L213.718439453125,77.9334L189.551439453125,77.9334L180.674439453125,62.0627ZM307.095439453125,31.128Q300.807439453125,24.792,289.287439453125,24.792Q276.615439453125,24.792,269.655439453125,31.752Q262.695439453125,38.712,262.695439453125,51.384Q262.695439453125,63.096,268.983439453125,69.576Q275.271439453125,76.056,286.791439453125,76.056Q299.463439453125,76.056,306.423439453125,69Q313.383439453125,61.944,313.383439453125,49.08Q313.383439453125,37.464,307.095439453125,31.128ZM82.839439453125,47.064Q82.119439453125,48.408,80.391439453125,49.752L74.727439453125,49.368L75.111439453125,38.136L77.223439453125,37.944Q80.583439453125,38.136,82.071439453125,39.384Q83.559439453125,40.632,83.559439453125,43.512Q83.559439453125,45.72,82.839439453125,47.064ZM77.950439453125,40.9472L77.756039453125,46.6332L79.397839453125,46.7445Q79.985839453125,46.1788,80.253639453125,45.6788Q80.626039453125,44.9838,80.626039453125,43.512Q80.626039453125,42.0003,80.186339453125,41.6316Q79.593539453125,41.1344,77.950439453125,40.9472ZM338.055439453125,38.136L337.671439453125,48.504L342.951439453125,48.888Q344.871439453125,47.928,345.687439453125,46.584Q346.503439453125,45.24,346.503439453125,43.032Q346.503439453125,40.44,345.063439453125,39.288Q343.623439453125,38.136,340.167439453125,37.944L338.055439453125,38.136ZM342.287439453125,45.8985Q342.920439453125,45.4894,343.180439453125,45.0616Q343.570439453125,44.4192,343.570439453125,43.032Q343.570439453125,41.8499,343.230439453125,41.5786Q342.656439453125,41.1191,340.887439453125,40.9405L340.707439453125,45.7836L342.287439453125,45.8985ZM125.463439453125,39.624Q126.759439453125,38.904,129.447439453125,38.904Q132.519439453125,38.904,134.007439453125,39.96Q135.495439453125,41.016,136.023439453125,43.896Q136.551439453125,46.776,136.551439453125,52.92Q136.551439453125,57.336,136.071439453125,59.4Q135.591439453125,61.464,134.295439453125,62.184Q132.999439453125,62.904,130.215439453125,62.904Q127.143439453125,62.904,125.703439453125,61.848Q124.263439453125,60.792,123.687439453125,57.912Q123.111439453125,55.032,123.111439453125,48.984Q123.111439453125,44.568,123.639439453125,42.456Q124.167439453125,40.344,125.463439453125,39.624ZM283.671439453125,39.624Q284.967439453125,38.904,287.655439453125,38.904Q290.727439453125,38.904,292.215439453125,39.96Q293.703439453125,41.016,294.231439453125,43.896Q294.759439453125,46.776,294.759439453125,52.92Q294.759439453125,57.336,294.279439453125,59.4Q293.799439453125,61.464,292.503439453125,62.184Q291.207439453125,62.904,288.423439453125,62.904Q285.351439453125,62.904,283.911439453125,61.848Q282.471439453125,60.792,281.895439453125,57.912Q281.319439453125,55.032,281.319439453125,48.984Q281.319439453125,44.568,281.847439453125,42.456Q282.375439453125,40.344,283.671439453125,39.624ZM126.888439453125,42.1883Q127.519439453125,41.8374,129.447439453125,41.8374Q131.584439453125,41.8374,132.309439453125,42.3522Q132.825439453125,42.718,133.138439453125,44.425Q133.618439453125,47.0427,133.618439453125,52.92Q133.618439453125,56.9994,133.214439453125,58.7355Q133.029439453125,59.5318,132.870439453125,59.6197Q132.239439453125,59.9706,130.215439453125,59.9706Q128.10343945312502,59.9706,127.438439453125,59.4825Q126.916439453125,59.0999,126.563439453125,57.3367Q126.044439453125,54.7415,126.044439453125,48.984Q126.044439453125,44.9291,126.485439453125,43.1675Q126.704439453125,42.2902,126.888439453125,42.1883ZM285.096439453125,42.1883Q285.727439453125,41.8374,287.655439453125,41.8374Q289.792439453125,41.8374,290.517439453125,42.3522Q291.033439453125,42.7181,291.346439453125,44.425Q291.826439453125,47.0426,291.826439453125,52.92Q291.826439453125,56.9994,291.422439453125,58.7355Q291.237439453125,59.5318,291.078439453125,59.6197Q290.447439453125,59.9706,288.423439453125,59.9706Q286.311439453125,59.9706,285.646439453125,59.4825Q285.124439453125,59.0999,284.772439453125,57.3367Q284.252439453125,54.7414,284.252439453125,48.984Q284.252439453125,44.9292,284.693439453125,43.1675Q284.912439453125,42.2902,285.096439453125,42.1883Z" fill-rule="evenodd" fill="#2B2B2B" fill-opacity="1"/></g></g></svg>