<svg xmlns="http://www.w3.org/2000/svg" xmlns:xlink="http://www.w3.org/1999/xlink" fill="none" version="1.1" width="679.134521484375" height="100.982666015625" viewBox="0 0 679.134521484375 100.982666015625"><defs><filter id="master_svg0_30_0789" filterUnits="objectBoundingBox" color-interpolation-filters="sRGB" x="0" y="0" width="676.7337369918823" height="103.73373699188232"><feFlood flood-opacity="0" result="BackgroundImageFix"/><feColorMatrix in="SourceAlpha" type="matrix" values="0 0 0 0 0 0 0 0 0 0 0 0 0 0 0 0 0 0 127 0"/><feOffset dy="11.733736991882324" dx="11.733736991882324"/><feGaussianBlur stdDeviation="0"/><feColorMatrix type="matrix" values="0 0 0 0 0.20229491591453552 0 0 0 0 0.198384627699852 0 0 0 0 0.1894473433494568 0 0 0 1 0"/><feBlend mode="normal" in2="BackgroundImageFix" result="effect1_dropShadow"/><feBlend mode="normal" in="SourceGraphic" in2="effect1_dropShadow" result="shape"/></filter><linearGradient x1="333.2369781136513" y1="-2.8166838037138356e-15" x2="333.2369781136513" y2="126.35802888870239" gradientUnits="userSpaceOnUse" id="master_svg1_30_0362"><stop offset="0%" stop-color="#ABF8FF" stop-opacity="1"/><stop offset="100%" stop-color="#CF4DFF" stop-opacity="1"/></linearGradient></defs><g><g filter="url(#master_svg0_30_0789)"><path d="M75.0409384765625,75L58.1449384765625,75L57.6649384765625,56.184L56.6089384765625,40.536L55.4569384765625,40.536L45.4729384765625,69.144L30.9769384765625,69.144L22.7209384765625,40.536L21.5689384765625,40.536L20.2249384765625,54.36L19.2649384765625,75L3.2329384765625,75L9.2809384765625,12.888L31.4569384765625,12.888L33.2809384765625,21.72L38.7529384765625,44.28L39.9049384765625,44.28L45.9529384765625,22.392L48.1609384765625,12.888L70.0489384765625,12.888L75.0409384765625,75ZM121.4089384765625,60.888L122.3689384765625,62.04L121.3129384765625,75L83.2009384765625,75L84.0649384765625,60.696L83.2009384765625,25.752L121.9849384765625,25.752L122.9449384765625,27L121.8889384765625,39.96L108.9289384765625,39.384L100.8649384765625,39.384L100.7689384765625,43.608L108.4489384765625,43.608L116.8009384765625,43.32L117.7609384765625,44.568L116.7049384765625,57.528L107.2969384765625,57.24L100.3849384765625,57.24L100.2889384765625,58.872L100.3849384765625,61.368L107.9689384765625,61.368L121.4089384765625,60.888ZM177.1849384765625,58.488L177.8569384765625,75L158.4649384765625,75L145.7929384765625,52.344L144.8329384765625,52.344L144.7369384765625,56.76L145.4089384765625,75L129.2809384765625,75L130.1449384765625,60.6L129.2809384765625,25.752L148.6729384765625,25.752L161.3449384765625,48.408L162.4009384765625,48.408L161.8249384765625,26.424L178.1449384765625,25.464L177.1849384765625,58.488ZM225.7609384765625,27L224.8009384765625,39.96L213.9529384765625,39.384L213.6649384765625,39.384L213.2809384765625,58.872L213.9529384765625,75L196.1929384765625,75L197.0569384765625,60.696L196.6729384765625,39.384L196.2889384765625,39.384L185.3449384765625,39.96L184.2889384765625,38.712L185.2489384765625,25.752L224.8009384765625,25.752L225.7609384765625,27ZM255.3289384765625,24.792Q266.8489384765625,24.792,273.1369384765625,31.128Q279.4249384765625,37.464,279.4249384765625,49.08Q279.4249384765625,61.944,272.4649384765625,69Q265.5049384765625,76.056,252.8329384765625,76.056Q241.3129384765625,76.056,235.0249384765625,69.576Q228.7369384765625,63.096,228.7369384765625,51.384Q228.7369384765625,38.712,235.6969384765625,31.752Q242.6569384765625,24.792,255.3289384765625,24.792ZM253.6969384765625,38.904Q251.0089384765625,38.904,249.7129384765625,39.624Q248.4169384765625,40.344,247.8889384765625,42.456Q247.3609384765625,44.568,247.3609384765625,48.984Q247.3609384765625,55.032,247.9369384765625,57.912Q248.5129384765625,60.792,249.9529384765625,61.848Q251.3929384765625,62.904,254.4649384765625,62.904Q257.2489384765625,62.904,258.5449384765625,62.184Q259.8409384765625,61.464,260.3209384765625,59.4Q260.8009384765625,57.336,260.8009384765625,52.92Q260.8009384765625,46.776,260.2729384765625,43.896Q259.7449384765625,41.016,258.2569384765625,39.96Q256.7689384765625,38.904,253.6969384765625,38.904ZM323.1049384765625,55.896Q330.0169384765625,65.688,334.2409384765625,70.872L333.9529384765625,72.792Q325.0249384765625,75.384,316.5769384765625,75.96L314.1769384765625,74.136Q310.1449384765625,65.4,308.3209384765625,61.368L303.5209384765625,61.368L304.1929384765625,75L286.3369384765625,75L287.2009384765625,60.696L286.3369384765625,25.752L312.6409384765625,25.752Q321.5689384765625,25.752,326.4649384765625,29.736Q331.3609384765625,33.72,331.3609384765625,41.208Q331.3609384765625,45.432,329.2009384765625,49.224Q327.0409384765625,53.016,323.1049384765625,55.896ZM304.0969384765625,38.136L303.7129384765625,48.504L308.9929384765625,48.888Q310.9129384765625,47.928,311.7289384765625,46.584Q312.5449384765625,45.24,312.5449384765625,43.032Q312.5449384765625,40.44,311.1049384765625,39.288Q309.6649384765625,38.136,306.2089384765625,37.944L304.0969384765625,38.136ZM414.7849384765625,49.56L413.6329384765625,61.08L399.6169384765625,61.08Q396.5449384765625,68.856,390.5449384765625,72.552Q384.5449384765625,76.248,375.4249384765625,76.248Q362.8489384765625,76.248,356.0329384765625,69.576Q349.2169384765625,62.904,349.2169384765625,50.616Q349.2169384765625,38.712,355.4089384765625,31.752Q361.6009384765625,24.792,372.6409384765625,24.792Q379.1689384765625,24.792,382.5289384765625,27.144Q385.8889384765625,29.496,386.1769384765625,33.624Q393.8569384765625,27.48,399.6169384765625,20.616Q405.3769384765625,13.752,408.5449384765625,6.648L409.9849384765625,6.648Q415.3609384765625,11.64,417.1849384765625,18.168Q415.3609384765625,23.16,407.6329384765625,30.888Q399.9049384765625,38.616,388.9129384765625,46.44Q377.9209384765625,54.264,367.1689384765625,59.544Q370.0489384765625,63.384,376.5769384765625,63.384Q382.7209384765625,63.384,386.0329384765625,59.928Q389.3449384765625,56.472,390.3049384765625,49.176L391.5529384765625,48.216L413.7289384765625,48.216L414.7849384765625,49.56ZM372.0649384765625,36.312Q368.7049384765625,36.312,366.8329384765625,39.048Q364.9609384765625,41.784,364.6729384765625,46.872Q368.2249384765625,45.24,372.8329384765625,42.648Q375.0409384765625,41.208,375.0409384765625,38.808Q375.0409384765625,36.312,372.0649384765625,36.312ZM454.0489384765625,54.552L454.2409384765625,63.096Q454.2409384765625,69.144,452.2249384765625,73.272Q450.2089384765625,77.4,445.5529384765625,80.376Q440.8969384765625,83.352,432.6409384765625,85.752L427.6489384765625,75.864L427.6489384765625,74.328Q432.5449384765625,71.928,434.5129384765625,69.336Q436.4809384765625,66.744,436.4809384765625,62.52L436.4809384765625,56.472L435.8089384765625,26.424L427.6489384765625,26.712L426.5929384765625,25.464L427.3609384765625,12.888L455.1049384765625,12.888L454.0489384765625,54.552ZM510.4009384765625,50.712L510.3049384765625,58.776Q510.2089384765625,67.128,504.1609384765625,71.592Q498.1129384765625,76.056,486.8809384765625,76.056Q476.0329384765625,76.056,470.3689384765625,71.592Q464.7049384765625,67.128,464.9929384765625,58.776L465.1849384765625,50.808L464.7049384765625,25.752L482.4649384765625,25.752L481.6969384765625,56.376Q481.6009384765625,59.448,482.9449384765625,60.744Q484.2889384765625,62.04,487.6489384765625,62.04Q491.0089384765625,62.04,492.4009384765625,60.744Q493.7929384765625,59.448,493.6969384765625,56.376L492.9289384765625,25.752L510.9769384765625,25.752L510.4009384765625,50.712ZM544.4809384765625,25.464Q556.0969384765625,25.464,562.2889384765625,31.368Q568.4809384765625,37.272,568.4809384765625,48.312Q568.4809384765625,61.56,561.1849384765625,68.664Q553.8889384765625,75.768,540.2569384765625,75.768Q533.3449384765624,75.768,520.0969384765625,75L520.9609384765625,60.696L520.0969384765625,25.752L544.4809384765625,25.464ZM543.6169384765625,62.616Q546.6889384765625,62.616,548.2729384765624,60.408Q549.8569384765625,58.2,549.8569384765625,52.728Q549.8569384765625,47.448,549.2329384765625,44.568Q548.6089384765625,41.688,547.1209384765625,40.488Q545.6329384765625,39.288,542.9449384765625,39.288Q540.9289384765625,39.288,537.7609384765625,39.576L537.1849384765625,58.872L537.2809384765625,61.848Q541.8889384765625,62.616,543.6169384765625,62.616ZM601.9849384765625,24.888Q611.1049384765626,24.888,617.1529384765626,26.808L613.3129384765625,42.456L611.9689384765625,42.456Q607.8409384765625,40.632,604.9609384765625,39.816Q602.0809384765626,39,598.6249384765625,39Q595.2649384765625,39,593.5849384765625,39.816Q591.9049384765625,40.632,591.2329384765625,43.08Q590.5609384765625,45.528,590.5609384765625,50.616Q590.5609384765625,55.8,591.3289384765625,58.344Q592.0969384765625,60.888,593.9689384765625,61.8Q595.8409384765625,62.712,599.6809384765625,62.712Q600.1609384765625,62.712,600.5449384765625,62.664Q600.9289384765625,62.616,601.1209384765625,62.712L601.1209384765625,61.464L600.9289384765625,52.728L617.1529384765626,51.672L616.8649384765625,58.392L616.8649384765625,72.504Q607.4569384765625,76.056,598.0489384765625,76.056Q585.0889384765625,76.056,578.5129384765625,69.72Q571.9369384765625,63.384,571.9369384765625,51.576Q571.9369384765625,38.52,579.7129384765625,31.704Q587.4889384765625,24.888,601.9849384765625,24.888ZM662.8489384765625,60.888L663.8089384765625,62.04L662.7529384765625,75L624.6409384765625,75L625.5049384765625,60.696L624.6409384765625,25.752L663.4249384765625,25.752L664.3849384765625,27L663.3289384765625,39.96L650.3689384765624,39.384L642.3049384765625,39.384L642.2089384765625,43.608L649.8889384765625,43.608L658.2409384765625,43.32L659.2009384765626,44.568L658.1449384765625,57.528L648.7369384765625,57.24L641.8249384765625,57.24L641.7289384765625,58.872L641.8249384765625,61.368L649.4089384765625,61.368L662.8489384765625,60.888Z" fill="url(#master_svg1_30_0362)" fill-opacity="1"/><path d="M416.2879384765625,64.0134L417.7039384765625,49.8519L417.8209384765625,48.6765L415.1549384765625,45.2826L395.4389384765625,45.2826Q403.5669384765625,39.1029,409.7069384765625,32.9623Q417.8939384765625,24.7758,419.9399384765625,19.1747L420.2639384765625,18.2879L420.0099384765625,17.3786Q417.9639384765625,10.0535,411.9809384765625,4.4984L411.1369384765625,3.71457L406.6409384765625,3.71457L405.8659384765625,5.45326Q402.8649384765625,12.1815,397.3699384765625,18.7303Q393.0929384765625,23.8274,387.7079384765625,28.5245Q386.4839384765625,26.3314,384.2109384765625,24.7408Q380.0939384765625,21.8586,372.6409384765625,21.8586Q360.2839384765625,21.8586,353.2169384765625,29.8022Q346.2839384765625,37.596,346.2839384765625,50.616Q346.2839384765625,64.1374,353.9809384765625,71.6723Q361.6519384765625,79.1814,375.4249384765625,79.1814Q385.3759384765625,79.1814,392.0829384765625,75.0496Q398.1639384765625,71.3043,401.5499384765625,64.0134L416.2879384765625,64.0134ZM399.6169384765625,61.08L413.6329384765625,61.08L414.7849384765625,49.56L413.7289384765625,48.216L391.5529384765625,48.216L390.3049384765625,49.176Q389.3449384765625,56.472,386.0329384765625,59.928Q382.7209384765625,63.384,376.5769384765625,63.384Q372.2159384765625,63.384,369.4829384765625,61.6703Q368.1249384765625,60.8187,367.1689384765625,59.544Q368.5079384765625,58.8863,369.8509384765625,58.1891Q379.2899384765625,53.2894,388.9129384765625,46.44Q399.9049384765625,38.616,407.6329384765625,30.888Q415.3609384765625,23.16,417.1849384765625,18.168Q415.5779384765625,12.4183,411.2159384765625,7.86014Q411.1999384765625,7.84328,411.1809384765625,7.8237Q410.6069384765625,7.22558,409.9849384765625,6.648L408.5449384765625,6.648Q405.3769384765625,13.752,399.6169384765625,20.616Q394.8689384765625,26.274,388.8159384765625,31.4428Q387.5259384765625,32.5444,386.1769384765625,33.624Q386.0559384765625,31.8963,385.3979384765625,30.4796Q384.4829384765625,28.5116,382.5289384765625,27.144Q379.1689384765625,24.792,372.6409384765625,24.792Q361.6009384765625,24.792,355.4089384765625,31.752Q349.2169384765625,38.712,349.2169384765625,50.616Q349.2169384765625,62.904,356.0329384765625,69.576Q362.8489384765625,76.248,375.4249384765625,76.248Q384.5449384765625,76.248,390.5449384765625,72.552Q396.5449384765625,68.856,399.6169384765625,61.08ZM372.7879384765625,59.9569Q379.8239384765625,56.1911,386.9499384765625,51.3727Q385.9889384765625,55.7344,383.9149384765625,57.8983Q381.4689384765625,60.4506,376.5769384765625,60.4506Q374.3989384765625,60.4506,372.7879384765625,59.9569ZM55.2853384765625,77.9334L78.2196384765625,77.9334L72.7560384765625,9.95457L45.8308384765625,9.95457L43.1093384765625,21.6692L39.4762384765625,34.8174L36.1435384765625,21.0775L33.8464384765625,9.95457L6.6192684765625,9.95457L-0.000005523437500043471,77.9334L22.0651384765625,77.9334L23.1517384765625,54.5702L23.2944384765625,53.1027L28.7703384765625,72.0774L47.5561384765625,72.0774L54.4620384765625,52.2894L54.7340384765625,56.3202L55.2853384765625,77.9334ZM57.6649384765625,56.184L58.1449384765625,75L75.0409384765625,75L74.8051384765625,72.0666L70.0489384765625,12.888L48.1609384765625,12.888L45.9529384765625,22.392L40.8989384765625,40.6828L39.9877384765625,43.9805L39.9049384765625,44.28L38.7529384765625,44.28L38.6701384765625,43.9388L37.8688384765625,40.6348L33.2809384765625,21.72L31.4569384765625,12.888L9.2809384765625,12.888L3.5185784765625,72.0666L3.2329384765625,75L19.2649384765625,75L20.2249384765625,54.36L21.0898384765625,45.4636L21.5356384765625,40.8781L21.5689384765625,40.536L22.7209384765625,40.536L22.7542384765625,40.6512L24.0638384765625,45.1892L30.9769384765625,69.144L45.4729384765625,69.144L53.9585384765625,44.8294L55.4291384765625,40.6156L55.4569384765625,40.536L56.6089384765625,40.536L56.6367384765625,40.9477L56.9257384765625,45.23L57.6649384765625,56.184ZM454.0489384765625,54.552L455.0309384765625,15.8214L455.1049384765625,12.888L427.3609384765625,12.888L426.5929384765625,25.464L427.6489384765625,26.712L432.8769384765625,26.5275L435.8089384765625,26.424L435.8749384765625,29.3569L436.4809384765625,56.472L436.4809384765625,62.52Q436.4809384765625,66.744,434.5129384765625,69.336Q432.5449384765625,71.928,427.6489384765625,74.328L427.6489384765625,75.864L432.6409384765625,85.752Q440.8969384765625,83.352,445.5529384765625,80.376Q450.2089384765625,77.4,452.2249384765625,73.272Q454.2409384765625,69.144,454.2409384765625,63.096L454.0489384765625,54.552ZM433.5479384765625,56.5042L432.9429384765625,29.4604L426.3289384765625,29.6938L423.5929384765625,26.4602L424.6009384765625,9.95457L458.1139384765625,9.95457L456.9829384765625,54.556L457.1739384765625,63.063L457.1739384765625,63.096Q457.1739384765625,69.8221,454.8609384765625,74.5593Q452.4829384765625,79.4279,447.1329384765625,82.8477Q442.1209384765625,86.051,433.4599384765625,88.5688L431.1199384765625,89.2489L424.7159384765625,76.5625L424.7159384765625,72.499L426.3579384765625,71.694Q430.6289384765625,69.6002,432.1769384765625,67.5621Q433.5479384765625,65.7566,433.5479384765625,62.52L433.5479384765625,56.5042ZM275.2189384765625,29.0616Q268.0699384765625,21.8586,255.3289384765625,21.8586Q241.4419384765625,21.8586,233.6229384765625,29.6777Q229.7809384765625,33.5199,227.8259384765625,38.8271L228.6859384765625,27.2167L228.7689384765625,26.0994L226.2449384765625,22.8186L182.5249384765625,22.8186L181.2749384765625,39.6913L184.0459384765625,42.9659L193.7939384765625,42.4528L194.1219384765625,60.6339L193.0769384765625,77.9334L217.0109384765625,77.9334L216.2159384765625,58.8397L216.5379384765625,42.4588L226.6299384765625,42.9947Q225.8039384765625,46.8685,225.8039384765625,51.384Q225.8039384765625,64.2853,232.9199384765625,71.6188Q240.0719384765625,78.9894,252.8329384765625,78.9894Q266.7319384765625,78.9894,274.5529384765625,71.06Q282.3579384765625,63.1473,282.3579384765625,49.08Q282.3579384765625,36.2555,275.2189384765625,29.0616ZM214.1229384765625,39.393L216.5959384765625,39.5243L224.8009384765625,39.96L225.7609384765625,27L224.8009384765625,25.752L185.2489384765625,25.752L184.2889384765625,38.712L185.3449384765625,39.96L193.7409384765625,39.5181L196.0889384765625,39.3945L196.2889384765625,39.384L196.6729384765625,39.384L197.0569384765625,60.696L196.3699384765625,72.0666L196.1929384765625,75L213.9529384765625,75L213.8309384765625,72.0666L213.2809384765625,58.872L213.6649384765625,39.384L213.9529384765625,39.384L214.1229384765625,39.393ZM618.0409384765625,24.0121Q611.5589384765625,21.9546,601.9849384765625,21.9546Q586.3849384765625,21.9546,577.7789384765625,29.4981Q572.7319384765625,33.9228,570.5869384765625,40.5621Q568.9909384765625,33.7049,564.3129384765625,29.245Q557.2709384765625,22.5306,544.4809384765625,22.5306L544.4459384765624,22.5308L517.0909384765625,22.8539L518.0249384765625,60.6434L516.9919384765625,77.7583L519.9269384765626,77.9285Q533.2599384765625,78.7014,540.2569384765625,78.7014Q555.0809384765626,78.7014,563.2309384765625,70.7657Q567.8409384765625,66.2769,569.8539384765625,59.7192Q571.5249384765625,67.0609,576.4779384765625,71.8324Q583.9059384765625,78.9894,598.0489384765625,78.9894Q607.9919384765625,78.9894,617.9009384765625,75.2483L619.7979384765625,74.532L619.7979384765625,58.455L620.2239384765625,48.5325L597.9349384765625,49.9833L598.1489384765625,59.736Q596.1849384765625,59.6168,595.2539384765626,59.1629Q594.5349384765625,58.8125,594.1369384765625,57.4963Q593.4939384765624,55.3669,593.4939384765624,50.616Q593.4939384765624,45.9235,594.0619384765625,43.8565Q594.3819384765625,42.69,594.8669384765625,42.4547Q595.9399384765625,41.9334,598.6249384765625,41.9334Q601.6729384765625,41.9334,604.1609384765625,42.6383Q606.8429384765625,43.3983,610.7829384765625,45.1392L611.3499384765626,45.3894L615.6139384765625,45.3894L620.6559384765625,24.8423L618.0409384765625,24.0121ZM601.0829384765625,59.7256L601.1209384765625,61.464L601.1209384765625,62.712Q600.9289384765625,62.616,600.5449384765625,62.664Q600.1609384765625,62.712,599.6809384765625,62.712Q598.8929384765624,62.712,598.1879384765625,62.6736Q595.4569384765625,62.5248,593.9689384765625,61.8Q592.0969384765625,60.888,591.3289384765625,58.344Q590.5609384765625,55.8,590.5609384765625,50.616Q590.5609384765625,45.528,591.2329384765625,43.08Q591.9049384765625,40.632,593.5849384765625,39.816Q595.2649384765625,39,598.6249384765625,39Q602.0809384765626,39,604.9609384765625,39.816Q607.8409384765625,40.632,611.9689384765625,42.456L613.3129384765625,42.456L617.1529384765626,26.808Q611.1049384765626,24.888,601.9849384765625,24.888Q587.4889384765625,24.888,579.7129384765625,31.704Q571.9369384765625,38.52,571.9369384765625,51.576Q571.9369384765625,63.384,578.5129384765625,69.72Q585.0889384765625,76.056,598.0489384765625,76.056Q607.4569384765625,76.056,616.8649384765625,72.504L616.8649384765625,58.392L617.0269384765625,54.6199L617.1529384765626,51.672L614.2089384765625,51.8636L600.9289384765625,52.728L601.0829384765625,59.7256ZM520.9609384765625,60.696L520.2739384765625,72.0719L520.0969384765625,75Q521.6019384765625,75.0873,523.0259384765625,75.1646Q534.1299384765625,75.768,540.2569384765625,75.768Q553.8889384765625,75.768,561.1849384765625,68.664Q568.4809384765625,61.56,568.4809384765625,48.312Q568.4809384765625,37.272,562.2889384765625,31.368Q556.0969384765625,25.464,544.4809384765625,25.464L523.0299384765625,25.7174L520.0969384765625,25.752L520.1689384765625,28.6848L520.9609384765625,60.696ZM177.1849384765625,58.488L178.0589384765625,28.4075L178.1449384765625,25.464L175.2049384765625,25.6369L161.8249384765625,26.424L162.2879384765625,44.0842L162.3239384765625,45.4746L162.3859384765625,47.8259L162.4009384765625,48.408L161.3449384765625,48.408L159.3739384765625,44.8845L148.6729384765625,25.752L129.2809384765625,25.752L129.3539384765625,28.6854L130.1449384765625,60.6L129.4569384765625,72.0666L129.2809384765625,75L145.4089384765625,75L145.3009384765625,72.0666L144.7369384765625,56.76L144.7429384765625,56.4763L144.8209384765625,52.8876L144.8329384765625,52.344L145.7929384765625,52.344L145.8049384765625,52.3651L147.6929384765625,55.7415L158.4649384765625,75L177.8569384765625,75L177.7379384765625,72.0666L177.1849384765625,58.488ZM147.8679384765625,62.0627L148.4519384765625,77.9334L126.1659384765625,77.9334L127.2089384765625,60.5485L126.2739384765625,22.8186L150.3929384765625,22.8186L159.2089384765625,38.5799L158.8179384765625,23.6624L181.1699384765625,22.3475L180.1199384765625,58.471L180.9119384765625,77.9334L156.7449384765625,77.9334L147.8679384765625,62.0627ZM125.3899384765625,61.0832L123.6629384765625,59.01L122.7419384765625,57.9051L119.6079384765625,58.017L120.7769384765625,43.6773L120.1149384765625,42.8175L124.5829384765625,43.0161L125.9609384765625,26.1093L123.4289384765625,22.8186L80.1940384765625,22.8186L81.1293384765625,60.6437L80.0849384765625,77.9334L124.0169384765625,77.9334L125.3899384765625,61.0832ZM84.0649384765625,60.696L83.3781384765625,72.0666L83.2009384765625,75L121.3129384765625,75L122.3689384765625,62.04L121.4089384765625,60.888L107.9689384765625,61.368L100.3849384765625,61.368L100.2889384765625,58.872L100.3849384765625,57.24L107.2969384765625,57.24L116.7049384765625,57.528L117.7609384765625,44.568L116.8009384765625,43.32L108.4489384765625,43.608L100.7689384765625,43.608L100.8359384765625,40.6746L100.8649384765625,39.384L108.9289384765625,39.384L121.8889384765625,39.96L122.9449384765625,27L121.9849384765625,25.752L83.2009384765625,25.752L83.2734384765625,28.6854L84.0649384765625,60.696ZM323.1049384765625,55.896Q330.0169384765625,65.688,334.2409384765625,70.872L333.9529384765625,72.792Q325.0249384765625,75.384,316.5769384765625,75.96L314.1769384765625,74.136Q310.1449384765625,65.4,308.3209384765625,61.368L303.5209384765625,61.368L303.6659384765625,64.3014L304.0479384765625,72.0666L304.1929384765625,75L286.3369384765625,75L286.5139384765625,72.0666L287.2009384765625,60.696L286.4099384765625,28.6854L286.3369384765625,25.752L312.6409384765625,25.752Q321.5689384765625,25.752,326.4649384765625,29.736Q331.3609384765625,33.72,331.3609384765625,41.208Q331.3609384765625,45.432,329.2009384765625,49.224Q327.0409384765625,53.016,323.1049384765625,55.896ZM284.2649384765625,60.6438L283.3299384765625,22.8186L312.6409384765625,22.8186Q322.6119384765625,22.8186,328.3159384765625,27.4607Q334.2939384765625,32.3251,334.2939384765625,41.208Q334.2939384765625,46.2089,331.7499384765625,50.6759Q329.9439384765625,53.8463,327.0849384765625,56.4359Q332.8469384765625,64.5168,336.5149384765625,69.019L337.3339384765625,70.0245L336.5749384765625,75.0853L334.7709384765625,75.6091Q325.5399384765625,78.2892,316.7769384765625,78.8866L315.6779384765625,78.9615L311.8169384765625,76.0268L306.6219384765625,64.7007L307.2749384765625,77.9334L283.2209384765625,77.9334L284.2649384765625,60.6438ZM513.3339384765625,50.7797L513.3339384765625,50.7469L513.9789384765625,22.8186L489.9209384765625,22.8186L490.7649384765625,56.4677Q490.8189384765625,58.2085,490.4019384765625,58.597Q489.8549384765625,59.1066,487.6489384765625,59.1066Q485.4729384765625,59.1066,484.9809384765625,58.6324Q484.5739384765625,58.2394,484.6289384765625,56.4495L485.4729384765625,22.8186L461.7149384765625,22.8186L462.2509384765625,50.8011L462.0609384765625,58.6749Q461.7219384765625,68.512,468.5529384765625,73.8959Q475.0159384765625,78.9894,486.8809384765625,78.9894Q499.0779384765625,78.9894,505.9029384765625,73.9522Q513.1249384765625,68.6213,513.2379384765625,58.8109L513.3339384765625,50.7797ZM465.1849384765625,50.808L464.9929384765625,58.776Q464.7049384765625,67.128,470.3689384765625,71.592Q476.0329384765625,76.056,486.8809384765625,76.056Q498.1129384765625,76.056,504.1609384765625,71.592Q510.2089384765625,67.128,510.3049384765625,58.776L510.4009384765625,50.712L510.9089384765625,28.6854L510.9769384765625,25.752L492.9289384765625,25.752L493.0029384765625,28.6854L493.6969384765625,56.376Q493.7929384765625,59.448,492.4009384765625,60.744Q491.0089384765625,62.04,487.6489384765625,62.04Q484.2889384765625,62.04,482.9449384765625,60.744Q481.6009384765625,59.448,481.6969384765625,56.376L482.3909384765625,28.6854L482.4649384765625,25.752L464.7049384765625,25.752L464.7609384765625,28.6854L465.1849384765625,50.808ZM666.8299384765625,61.0832L665.1029384765625,59.0101L664.1819384765626,57.9051L661.0479384765625,58.017L662.2169384765625,43.6772L661.5549384765625,42.8175L666.0229384765624,43.0161L667.4009384765625,26.1093L664.8689384765624,22.8186L621.6339384765625,22.8186L622.5689384765625,60.6434L621.5249384765625,77.9334L665.4569384765625,77.9334L666.8299384765625,61.0832ZM625.5049384765625,60.696L624.8179384765625,72.0666L624.6409384765625,75L662.7529384765625,75L663.8089384765625,62.04L662.8489384765625,60.888L649.4089384765625,61.368L641.8249384765625,61.368L641.7289384765625,58.872L641.8249384765625,57.24L648.7369384765625,57.24L658.1449384765625,57.528L659.2009384765626,44.568L658.2409384765625,43.32L649.8889384765625,43.608L642.2089384765625,43.608L642.2759384765625,40.6746L642.3049384765625,39.384L650.3689384765624,39.384L663.3289384765625,39.96L664.3849384765625,27L663.4249384765625,25.752L624.6409384765625,25.752L624.7129384765625,28.6854L625.5049384765625,60.696ZM273.1369384765625,31.128Q266.8489384765625,24.792,255.3289384765625,24.792Q242.6569384765625,24.792,235.6969384765625,31.752Q228.7369384765625,38.712,228.7369384765625,51.384Q228.7369384765625,63.096,235.0249384765625,69.576Q241.3129384765625,76.056,252.8329384765625,76.056Q265.5049384765625,76.056,272.4649384765625,69Q279.4249384765625,61.944,279.4249384765625,49.08Q279.4249384765625,37.464,273.1369384765625,31.128ZM366.8329384765625,39.048Q368.7049384765625,36.312,372.0649384765625,36.312Q375.0409384765625,36.312,375.0409384765625,38.808Q375.0409384765625,41.208,372.8329384765625,42.648Q370.1069384765625,44.1815,367.7499384765625,45.3791Q366.1229384765625,46.2056,364.6729384765625,46.872Q364.7799384765625,44.9844,365.1049384765625,43.4204Q365.6559384765625,40.7689,366.8329384765625,39.048ZM368.7779384765625,41.5312Q369.9929384765625,40.8788,371.2979384765625,40.1458Q371.8699384765625,39.7509,372.0379384765625,39.2455Q370.2449384765625,39.2563,369.2539384765625,40.7044Q368.9959384765625,41.0809,368.7779384765625,41.5312ZM304.0969384765625,38.136L303.7129384765625,48.504L308.9929384765625,48.888Q310.9129384765625,47.928,311.7289384765625,46.584Q312.5449384765625,45.24,312.5449384765625,43.032Q312.5449384765625,40.44,311.1049384765625,39.288Q309.6649384765625,38.136,306.2089384765625,37.944L304.0969384765625,38.136ZM308.3289384765625,45.8985Q308.9619384765625,45.4894,309.2219384765625,45.0616Q309.6119384765625,44.4193,309.6119384765625,43.032Q309.6119384765625,41.8499,309.2719384765625,41.5786Q308.6979384765625,41.1191,306.9289384765625,40.9405L306.7489384765625,45.7836L308.3289384765625,45.8985ZM249.7129384765625,39.624Q251.0089384765625,38.904,253.6969384765625,38.904Q256.7689384765625,38.904,258.2569384765625,39.96Q259.7449384765625,41.016,260.2729384765625,43.896Q260.8009384765625,46.776,260.8009384765625,52.92Q260.8009384765625,57.336,260.3209384765625,59.4Q259.8409384765625,61.464,258.5449384765625,62.184Q257.2489384765625,62.904,254.4649384765625,62.904Q251.3929384765625,62.904,249.9529384765625,61.848Q248.5129384765625,60.792,247.9369384765625,57.912Q247.3609384765625,55.032,247.3609384765625,48.984Q247.3609384765625,44.568,247.8889384765625,42.456Q248.4169384765625,40.344,249.7129384765625,39.624ZM548.2729384765624,60.408Q546.6889384765625,62.616,543.6169384765625,62.616Q541.8889384765625,62.616,537.2809384765625,61.848L537.1849384765625,58.872L537.7609384765625,39.576Q540.9289384765625,39.288,542.9449384765625,39.288Q545.6329384765625,39.288,547.1209384765625,40.488Q548.6089384765625,41.688,549.2329384765625,44.568Q549.8569384765625,47.448,549.8569384765625,52.728Q549.8569384765625,58.2,548.2729384765624,60.408ZM540.6139384765625,42.2996L540.1199384765625,58.8688L540.1349384765625,59.3272Q542.5789384765625,59.6826,543.6169384765625,59.6826Q545.1829384765625,59.6826,545.8889384765625,58.6981Q546.9239384765625,57.2566,546.9239384765625,52.728Q546.9239384765625,47.7622,546.3659384765625,45.1892Q545.9609384765625,43.3214,545.2789384765625,42.7714Q544.5969384765625,42.2214,542.9449384765625,42.2214Q541.9429384765625,42.2214,540.6139384765625,42.2996ZM251.1379384765625,42.1883Q251.7689384765625,41.8374,253.6969384765625,41.8374Q255.8339384765625,41.8374,256.5589384765625,42.3522Q257.0749384765625,42.718,257.3879384765625,44.425Q257.8679384765625,47.0426,257.8679384765625,52.92Q257.8679384765625,56.9994,257.4639384765625,58.7355Q257.2789384765625,59.5318,257.1199384765625,59.6197Q256.4889384765625,59.9706,254.4649384765625,59.9706Q252.3529384765625,59.9706,251.6879384765625,59.4825Q251.1659384765625,59.0999,250.8129384765625,57.3367Q250.2939384765625,54.7415,250.2939384765625,48.984Q250.2939384765625,44.9291,250.7349384765625,43.1675Q250.9539384765625,42.2902,251.1379384765625,42.1883Z" fill-rule="evenodd" fill="#2B2B2B" fill-opacity="1"/></g></g></svg>