<svg xmlns="http://www.w3.org/2000/svg" xmlns:xlink="http://www.w3.org/1999/xlink" fill="none" version="1.1" width="311.059326171875" height="92" viewBox="0 0 311.059326171875 92"><defs><filter id="master_svg0_30_0561" filterUnits="objectBoundingBox" color-interpolation-filters="sRGB" x="0" y="0" width="309.7337369918823" height="103.73373699188232"><feFlood flood-opacity="0" result="BackgroundImageFix"/><feColorMatrix in="SourceAlpha" type="matrix" values="0 0 0 0 0 0 0 0 0 0 0 0 0 0 0 0 0 0 127 0"/><feOffset dy="11.733736991882324" dx="11.733736991882324"/><feGaussianBlur stdDeviation="0"/><feColorMatrix type="matrix" values="0 0 0 0 0.20229491591453552 0 0 0 0 0.198384627699852 0 0 0 0 0.1894473433494568 0 0 0 1 0"/><feBlend mode="normal" in2="BackgroundImageFix" result="effect1_dropShadow"/><feBlend mode="normal" in="SourceGraphic" in2="effect1_dropShadow" result="shape"/></filter><linearGradient x1="151.24818670749664" y1="-2.8166838037138356e-15" x2="151.24818670749664" y2="126.35802888870239" gradientUnits="userSpaceOnUse" id="master_svg1_30_0362"><stop offset="0%" stop-color="#ABF8FF" stop-opacity="1"/><stop offset="100%" stop-color="#CF4DFF" stop-opacity="1"/></linearGradient></defs><g><g filter="url(#master_svg0_30_0561)"><path d="M51.4961689453125,14.232L50.4401689453125,28.248L37.7681689453125,27.672L36.6161689453125,27.672L36.1361689453125,54.84L36.9041689453125,75L17.7041689453125,75L18.6641689453125,56.76L18.1841689453125,27.672L16.936168945312502,27.672L4.1681689453125,28.248L3.0161689453125,26.904L4.0721689453125,12.888L50.4401689453125,12.888L51.4961689453125,14.232ZM93.9281689453125,55.896Q100.8401689453125,65.688,105.0641689453125,70.872L104.7761689453125,72.792Q95.8481689453125,75.384,87.4001689453125,75.96L85.0001689453125,74.136Q80.9681689453125,65.4,79.1441689453125,61.368L74.3441689453125,61.368L75.0161689453125,75L57.1601689453125,75L58.0241689453125,60.696L57.1601689453125,25.752L83.4641689453125,25.752Q92.3921689453125,25.752,97.2881689453125,29.736Q102.1841689453125,33.72,102.1841689453125,41.208Q102.1841689453125,45.432,100.0241689453125,49.224Q97.8641689453125,53.016,93.9281689453125,55.896ZM74.9201689453125,38.136L74.5361689453125,48.504L79.8161689453125,48.888Q81.7361689453125,47.928,82.5521689453125,46.584Q83.3681689453125,45.24,83.3681689453125,43.032Q83.3681689453125,40.44,81.9281689453125,39.288Q80.4881689453125,38.136,77.0321689453125,37.944L74.9201689453125,38.136ZM138.7601689453125,75L137.7041689453125,68.184L130.4081689453125,67.992L124.6481689453125,68.28L123.5921689453125,75L106.2161689453125,75L121.4801689453125,25.752L142.9841689453125,25.752L156.8081689453125,75L138.7601689453125,75ZM131.4641689453125,55.32L135.2081689453125,55.224L132.4241689453125,41.496L131.3681689453125,41.496L127.7201689453125,55.224L131.4641689453125,55.32ZM187.6241689453125,24.888Q194.4401689453125,24.888,200.5841689453125,26.424L197.6081689453125,40.536L196.4561689453125,41.304Q194.5361689453125,40.44,191.8481689453125,39.864Q189.1601689453125,39.288,186.9521689453125,39.288Q182.5361689453125,39.288,180.6641689453125,41.4Q178.7921689453125,43.512,178.7921689453125,48.792Q178.7921689453125,55.416,181.0481689453125,58.344Q183.3041689453125,61.272,188.2001689453125,61.272Q190.2161689453125,61.272,192.9041689453125,60.984Q195.5921689453125,60.696,197.5121689453125,60.312L198.9521689453125,61.176L197.5121689453125,75.192Q193.1921689453125,75.96,186.7601689453125,75.96Q173.3201689453125,75.96,166.6481689453125,69.576Q159.9761689453125,63.192,159.9761689453125,50.904Q159.9761689453125,38.52,167.1761689453125,31.704Q174.3761689453125,24.888,187.6241689453125,24.888ZM239.3681689453125,49.08Q246.5681689453125,60.12,255.4001689453125,71.256L255.1121689453125,73.176Q245.8001689453125,75.288,237.3521689453125,75.96L235.3361689453125,74.904Q228.6161689453125,63,223.5281689453125,53.4L223.3361689453125,58.872L224.1041689453125,75L206.2481689453125,75L207.1121689453125,60.696L206.2481689453125,25.752L224.3921689453125,25.752L223.7201689453125,45.528L232.3601689453125,31.416L235.0481689453125,25.752L253.7681689453125,25.752L239.3681689453125,49.08ZM280.3601689453125,24.792Q288.1361689453125,24.792,295.5281689453125,27.384L292.9361689453125,42.168L290.4401689453125,42.84Q287.0801689453125,40.632,283.4801689453125,39.288Q279.8801689453125,37.944,277.8641689453125,37.944Q275.8481689453125,37.944,275.8481689453125,39.192Q275.8481689453125,40.44,277.2401689453125,41.208Q278.6321689453125,41.976,281.8961689453125,43.224Q286.2161689453125,44.76,289.1441689453125,46.344Q292.0721689453125,47.928,294.2321689453125,50.952Q296.3921689453125,53.976,296.3921689453125,58.68Q296.3921689453125,63.288,294.1361689453125,67.224Q291.8801689453125,71.16,286.8881689453125,73.656Q281.8961689453125,76.152,274.2161689453125,76.152Q265.5761689453125,76.152,256.8401689453125,73.464L259.4321689453125,58.008L261.0641689453125,56.76Q264.8081689453125,59.736,269.2241689453125,61.656Q273.6401689453125,63.576,276.5201689453125,63.576Q278.8241689453125,63.576,278.8241689453125,62.04Q278.8241689453125,60.888,277.5281689453125,60.168Q276.2321689453125,59.448,272.9681689453125,58.2Q268.6481689453125,56.664,265.6721689453125,55.032Q262.6961689453125,53.4,260.4881689453125,50.28Q258.2801689453125,47.16,258.2801689453125,42.36Q258.2801689453125,37.368,260.8721689453125,33.384Q263.4641689453125,29.4,268.4561689453125,27.096Q273.4481689453125,24.792,280.3601689453125,24.792Z" fill="url(#master_svg1_30_0362)" fill-opacity="1"/><path d="M53.1513689453125,31.3077L54.4212689453125,14.4524L54.5069689453125,13.3159L51.8659689453125,9.95457L1.3514329453125,9.95457L-0.00006105468749995069,27.8926L2.8716689453125,31.2429L15.2999689453125,30.6822L15.7294689453125,56.7071L14.6122689453125,77.9334L39.9514689453125,77.9334L39.0705689453125,54.81L39.4967689453125,30.687L53.1513689453125,31.3077ZM38.5006689453125,27.7053L39.5486689453125,27.7529L50.4401689453125,28.248L51.4961689453125,14.232L50.4401689453125,12.888L4.0721689453125,12.888L3.0161689453125,26.904L4.1681689453125,28.248L15.2515689453125,27.748L16.2163689453125,27.7045L16.936168945312502,27.672L18.1841689453125,27.672L18.6641689453125,56.76L17.8585689453125,72.0666L17.7041689453125,75L36.9041689453125,75L36.7924689453125,72.0666L36.1361689453125,54.84L36.6161689453125,27.672L37.7681689453125,27.672L38.5006689453125,27.7053ZM296.4991689453125,24.6158Q288.6351689453125,21.8586,280.3601689453125,21.8586Q272.8041689453125,21.8586,267.2271689453125,24.4326Q261.4671689453125,27.0911,258.4131689453125,31.7843Q255.3471689453125,36.4978,255.3471689453125,42.36Q255.3471689453125,48.093,258.0941689453125,51.9745Q258.8871689453125,53.0954,259.7701689453125,54.0564L256.73016894531247,56.3811L255.0991689453125,66.1112Q248.4811689453125,57.54,242.8461689453125,49.0306L259.0261689453125,22.8186L233.1931689453125,22.8186L229.7771689453125,30.0174L227.0301689453125,34.5042L227.4271689453125,22.8186L203.2411689453125,22.8186L203.2721689453125,24.0723L201.2951689453125,23.5781Q194.8011689453125,21.9546,187.6241689453125,21.9546Q173.2081689453125,21.9546,165.1591689453125,29.5737Q157.0431689453125,37.2576,157.0431689453125,50.904Q157.0431689453125,64.4452,164.6201689453125,71.6955Q172.1431689453125,78.8934,186.7601689453125,78.8934Q193.4511689453125,78.8934,198.0251689453125,78.0801L200.2041689453125,77.6929L202.0611689453125,59.6203L198.0491689453125,57.2131L196.9371689453125,57.4355Q195.1471689453125,57.7934,192.5921689453125,58.0673Q190.0591689453125,58.3386,188.2001689453125,58.3386Q184.7471689453125,58.3386,183.3721689453125,56.5536Q181.7251689453125,54.417,181.7251689453125,48.792Q181.7251689453125,44.6249,182.8591689453125,43.3458Q183.8561689453125,42.2214,186.9521689453125,42.2214Q188.8491689453125,42.2214,191.2331689453125,42.7323Q193.6161689453125,43.243,195.2521689453125,43.9791L196.7331689453125,44.6452L200.2311689453125,42.3127L203.3571689453125,27.4922L204.1761689453125,60.6438L203.1321689453125,77.9334L227.1801689453125,77.9334L226.5751689453125,65.2098Q229.4821689453125,70.5018,232.7811689453125,76.3461L233.2071689453125,77.1005L236.7411689453125,78.9513L237.5851689453125,78.8842Q246.1031689453125,78.2066,255.4531689453125,76.1063L255.9771689453125,76.2677Q265.1351689453125,79.0854,274.2161689453125,79.0854Q282.5881689453125,79.0854,288.2001689453125,76.2797Q293.9841689453125,73.3875,296.6811689453125,68.6827Q299.3251689453125,64.069,299.3251689453125,58.68Q299.3251689453125,53.0359,296.6191689453125,49.247Q294.9261689453125,46.8772,292.8081689453125,45.2405L295.5031689453125,44.5148L298.8471689453125,25.4393L296.4991689453125,24.6158ZM281.8961689453125,43.224Q278.6321689453125,41.976,277.2401689453125,41.208Q275.8481689453125,40.44,275.8481689453125,39.192Q275.8481689453125,37.944,277.8641689453125,37.944Q279.8801689453125,37.944,283.4801689453125,39.288Q287.0801689453125,40.632,290.4401689453125,42.84L292.9361689453125,42.168L295.5281689453125,27.384Q288.1361689453125,24.792,280.3601689453125,24.792Q273.4481689453125,24.792,268.4561689453125,27.096Q263.4641689453125,29.4,260.8721689453125,33.384Q258.2801689453125,37.368,258.2801689453125,42.36Q258.2801689453125,47.16,260.4881689453125,50.28Q262.6961689453125,53.4,265.6721689453125,55.032Q268.6481689453125,56.664,272.9681689453125,58.2Q276.2321689453125,59.448,277.5281689453125,60.168Q278.8241689453125,60.888,278.8241689453125,62.04Q278.8241689453125,63.576,276.5201689453125,63.576Q273.6401689453125,63.576,269.2241689453125,61.656Q264.8081689453125,59.736,261.0641689453125,56.76L259.4321689453125,58.008L259.2611689453125,59.0285L259.2541689453125,59.0686L257.5481689453125,69.2433L256.8401689453125,73.464Q257.4121689453125,73.64,257.9841689453125,73.8046Q266.1421689453125,76.152,274.2161689453125,76.152Q281.8961689453125,76.152,286.8881689453125,73.656Q291.8801689453125,71.16,294.1361689453125,67.224Q296.3921689453125,63.288,296.3921689453125,58.68Q296.3921689453125,53.976,294.2321689453125,50.952Q292.0721689453125,47.928,289.1441689453125,46.344Q286.2161689453125,44.76,281.8961689453125,43.224ZM253.8681689453125,73.4527Q254.4881689453125,73.3175,255.1121689453125,73.176L255.4001689453125,71.256Q254.9171689453125,70.647,254.4401689453125,70.0396Q246.1751689453125,59.5169,239.3681689453125,49.08L251.9571689453125,28.6854L253.7681689453125,25.752L235.0481689453125,25.752L232.3601689453125,31.416L226.8281689453125,40.4522L223.7201689453125,45.528L223.9221689453125,39.5799L224.2921689453125,28.6854L224.3921689453125,25.752L206.2481689453125,25.752L206.3211689453125,28.6854L207.1121689453125,60.696L206.4251689453125,72.0666L206.2481689453125,75L224.1041689453125,75L223.9641689453125,72.0666L223.3561689453125,59.2996L223.3361689453125,58.872L223.5281689453125,53.4Q224.8501689453125,55.8952,226.2831689453125,58.5452Q230.3621689453125,66.0934,235.3361689453125,74.904L237.3521689453125,75.96Q245.2341689453125,75.333,253.8681689453125,73.4527ZM93.9281689453125,55.896Q97.8641689453125,53.016,100.0241689453125,49.224Q102.1841689453125,45.432,102.1841689453125,41.208Q102.1841689453125,33.72,97.2881689453125,29.736Q92.3921689453125,25.752,83.4641689453125,25.752L57.1601689453125,25.752L57.2326689453125,28.6854L58.0241689453125,60.696L57.3373689453125,72.0666L57.1601689453125,75L75.0161689453125,75L74.8715689453125,72.0666L74.4887689453125,64.3014L74.3441689453125,61.368L79.1441689453125,61.368Q80.9681689453125,65.4,85.0001689453125,74.136L87.4001689453125,75.96Q95.3561689453125,75.4175,103.7381689453125,73.087Q104.2561689453125,72.9429,104.7761689453125,72.792L105.0641689453125,70.872Q104.8371689453125,70.5931,104.6011689453125,70.3005Q100.4680689453125,65.1609,93.9281689453125,55.896ZM107.8681689453125,69.6695L107.1251689453125,72.0666L106.2161689453125,75L123.5921689453125,75L124.6481689453125,68.28L130.4081689453125,67.992L137.7041689453125,68.184L138.7601689453125,75L156.8081689453125,75L155.9851689453125,72.0666L142.9841689453125,25.752L121.4801689453125,25.752L107.8681689453125,69.6695ZM135.1801689453125,71.052L135.8611689453125,75.4491L136.2461689453125,77.9334L160.6781689453125,77.9334L145.2071689453125,22.8186L119.3181689453125,22.8186L105.6541689453125,66.9049Q102.4241689453125,62.7698,97.9076689453125,56.4359Q100.7671689453125,53.8462,102.5731689453125,50.6759Q105.1171689453125,46.2089,105.1171689453125,41.208Q105.1171689453125,32.3251,99.1396689453125,27.4607Q93.4348689453125,22.8186,83.4641689453125,22.8186L54.1532689453125,22.8186L55.0885689453125,60.6438L54.0441689453125,77.9334L78.0977689453125,77.9334L77.4454689453125,64.7007L82.6401689453125,76.0268L86.5015689453125,78.9615L87.5996689453125,78.8866Q94.9892689453125,78.3828,102.7121689453125,76.3981L102.2358689453125,77.9334L126.1001689453125,77.9334L127.1761689453125,71.0907L130.4431689453125,70.9274L135.1801689453125,71.052ZM200.5841689453125,26.424Q194.4401689453125,24.888,187.6241689453125,24.888Q174.3761689453125,24.888,167.1761689453125,31.704Q159.9761689453125,38.52,159.9761689453125,50.904Q159.9761689453125,63.192,166.6481689453125,69.576Q173.3201689453125,75.96,186.7601689453125,75.96Q193.1921689453125,75.96,197.5121689453125,75.192L198.9521689453125,61.176L197.5121689453125,60.312Q195.5921689453125,60.696,192.9041689453125,60.984Q190.2161689453125,61.272,188.2001689453125,61.272Q183.3041689453125,61.272,181.0481689453125,58.344Q178.7921689453125,55.416,178.7921689453125,48.792Q178.7921689453125,43.512,180.6641689453125,41.4Q182.5361689453125,39.288,186.9521689453125,39.288Q189.1601689453125,39.288,191.8481689453125,39.864Q194.5361689453125,40.44,196.4561689453125,41.304L197.6081689453125,40.536L200.5841689453125,26.424ZM74.9201689453125,38.136L74.5361689453125,48.504L79.8161689453125,48.888Q81.7361689453125,47.928,82.5521689453125,46.584Q83.3681689453125,45.24,83.3681689453125,43.032Q83.3681689453125,40.44,81.9281689453125,39.288Q80.4881689453125,38.136,77.0321689453125,37.944L74.9201689453125,38.136ZM79.1520689453125,45.8985Q79.7849689453125,45.4894,80.0446689453125,45.0616Q80.4347689453125,44.4192,80.4347689453125,43.032Q80.4347689453125,41.8499,80.0956689453125,41.5786Q79.5212689453125,41.1191,77.7517689453125,40.9405L77.5723689453125,45.7836L79.1520689453125,45.8985ZM130.7351689453125,55.3013L127.7201689453125,55.224L128.49416894531248,52.3095L130.2691689453125,45.6305L131.3081689453125,41.7223L131.3681689453125,41.496L132.4241689453125,41.496L132.4841689453125,41.7926L133.2811689453125,45.7204L134.6161689453125,52.3048L135.2081689453125,55.224L132.2301689453125,55.3003L131.4641689453125,55.32L130.7351689453125,55.3013ZM131.5101689453125,52.3844L131.6381689453125,52.3811L131.5831689453125,52.1087L131.5101689453125,52.3844Z" fill-rule="evenodd" fill="#2B2B2B" fill-opacity="1"/></g></g></svg>