<svg xmlns="http://www.w3.org/2000/svg" xmlns:xlink="http://www.w3.org/1999/xlink" fill="none" version="1.1" width="42" height="67" viewBox="0 0 42 67"><defs><clipPath id="master_svg0_30_694"><rect x="0" y="0" width="42" height="67" rx="0"/></clipPath><mask id="master_svg1_30_714" style="mask-type:alpha" maskUnits="userSpaceOnUse"><g><g><path d="M0.21558454632759094,34.6877C0.21558454632759094,34.6877,21.02868454632759,47.0435,21.02868454632759,47.0435C21.02868454632759,47.0435,21.02868454632759,0,21.02868454632759,0C21.02868454632759,0,0.21558454632759094,34.6877,0.21558454632759094,34.6877Z" fill="#000000" fill-opacity="1"/></g></g></mask><mask id="master_svg2_30_710" style="mask-type:alpha" maskUnits="userSpaceOnUse"><g><g><path d="M41.99084105072021,34.6877C41.99084105072021,34.6877,21.177741050720215,47.0412,21.177741050720215,47.0412C21.177741050720215,47.0412,21.177741050720215,0,21.177741050720215,0C21.177741050720215,0,41.99084105072021,34.6877,41.99084105072021,34.6877ZM21.177741050720215,67C21.177741050720215,67,21.177741050720215,49.8935,21.177741050720215,49.8935C21.177741050720215,49.8935,42.00234105072022,37.5399,42.00234105072022,37.5399C42.00234105072022,37.5399,21.177741050720215,67,21.177741050720215,67Z" fill="#000000" fill-opacity="1"/></g></g></mask></defs><g clip-path="url(#master_svg0_30_694)"><g><g><path d="M0.36465898156166077,34.6877C0.36465898156166077,34.6877,21.17775898156166,47.0435,21.17775898156166,47.0435C21.17775898156166,47.0435,21.17775898156166,0,21.17775898156166,0C21.17775898156166,0,0.36465898156166077,34.6877,0.36465898156166077,34.6877Z" fill="#00008B" fill-opacity="1"/></g><g><path d="M41.99084072289467,34.6877C41.99084072289467,34.6877,21.17774072289467,47.0435,21.17774072289467,47.0435C21.17774072289467,47.0435,21.17774072289467,0,21.17774072289467,0C21.17774072289467,0,41.99084072289467,34.6877,41.99084072289467,34.6877Z" fill="#00008B" fill-opacity="1"/></g><g><path d="M21.17775898335248,67.0000055480957C21.17775898335248,67.0000055480957,21.17775898335248,49.8935055480957,21.17775898335248,49.8935055480957C21.17775898335248,49.8935055480957,0.3646589833524809,37.5399055480957,0.3646589833524809,37.5399055480957C0.3646589833524809,37.5399055480957,21.17775898335248,67.0000055480957,21.17775898335248,67.0000055480957Z" fill="#00008B" fill-opacity="1"/></g><g><path d="M21.17774072289467,67.0000055480957C21.17774072289467,67.0000055480957,21.17774072289467,49.8935055480957,21.17774072289467,49.8935055480957C21.17774072289467,49.8935055480957,42.00004072289467,37.5399055480957,42.00004072289467,37.5399055480957C42.00004072289467,37.5399055480957,21.17774072289467,67.0000055480957,21.17774072289467,67.0000055480957Z" fill="#00008B" fill-opacity="1"/></g></g><g><g mask="url(#master_svg1_30_714)"><g><g><g><path d="M8.662374347534179,20.378077018642426C8.662374347534179,20.378077018642426,12.12548434753418,14.634477018642425,12.12548434753418,14.634477018642425C12.12548434753418,14.634477018642425,17.84308434753418,18.115677018642426,17.84308434753418,18.115677018642426C17.84308434753418,18.115677018642426,26.50318434753418,3.7576770186424255,26.50318434753418,3.7576770186424255C26.50318434753418,3.7576770186424255,32.22068434753418,7.236577018642425,32.22068434753418,7.236577018642425C32.22068434753418,7.236577018642425,23.55838434753418,21.594577018642426,23.55838434753418,21.594577018642426C23.55838434753418,21.594577018642426,29.27588434753418,25.075777018642427,29.27588434753418,25.075777018642427C29.27588434753418,25.075777018642427,25.810484347534178,30.819377018642424,25.810484347534178,30.819377018642424C25.810484347534178,30.819377018642424,20.09298434753418,27.338177018642426,20.09298434753418,27.338177018642426C20.09298434753418,27.338177018642426,11.43286434753418,41.69617701864242,11.43286434753418,41.69617701864242C11.43286434753418,41.69617701864242,5.71528434753418,38.21727701864243,5.71528434753418,38.21727701864243C5.71528434753418,38.21727701864243,14.37536434753418,23.859277018642427,14.37536434753418,23.859277018642427C14.37536434753418,23.859277018642427,8.657784347534179,20.378077018642426,8.657784347534179,20.378077018642426C8.657784347534179,20.378077018642426,8.662374347534179,20.378077018642426,8.662374347534179,20.378077018642426Z" fill="#FFFFFF" fill-opacity="1"/></g><g><path d="M0,34.73830952291489C0,34.73830952291489,2.32327,30.886209522914886,2.32327,30.886209522914886C2.32327,30.886209522914886,36.021,9.552009522914886,36.021,9.552009522914886C36.021,9.552009522914886,37.9383,10.720089522914886,37.9383,10.720089522914886C37.9383,10.720089522914886,35.615,14.572229522914887,35.615,14.572229522914887C35.615,14.572229522914887,1.91733,35.90410952291489,1.91733,35.90410952291489C1.91733,35.90410952291489,0,34.736009522914884,0,34.736009522914884C0,34.736009522914884,0,34.73830952291489,0,34.73830952291489Z" fill="#FFFFFF" fill-opacity="1"/></g><g><g><path d="M20.78556233520508,0.2787730956187289C20.78556233520508,0.2787730956187289,18.462292335205078,4.130909185618728,18.462292335205078,4.130909185618728C18.462292335205078,4.130909185618728,15.233112335205078,44.01156918561873,15.233112335205078,44.01156918561873C15.233112335205078,44.01156918561873,17.150442335205078,45.17966918561873,17.150442335205078,45.17966918561873C17.150442335205078,45.17966918561873,19.47371233520508,41.32756918561873,19.47371233520508,41.32756918561873C19.47371233520508,41.32756918561873,22.70518233520508,1.444549185618729,22.70518233520508,1.444549185618729C22.70518233520508,1.444549185618729,20.787852335205077,0.2764691856187289,20.787852335205077,0.2764691856187289C20.787852335205077,0.2764691856187289,20.78556233520508,0.2787730956187289,20.78556233520508,0.2787730956187289Z" fill="#FFFFFF" fill-opacity="1"/></g></g><g><path d="M9.354996892242433,19.230757295894623C9.354996892242433,19.230757295894623,11.432856892242432,15.784057295894623,11.432856892242432,15.784057295894623C11.432856892242432,15.784057295894623,18.29261689224243,19.961057295894623,18.29261689224243,19.961057295894623C18.29261689224243,19.961057295894623,27.647616892242432,4.453457295894623,27.647616892242432,4.453457295894623C27.647616892242432,4.453457295894623,31.078616892242433,6.540797295894623,31.078616892242433,6.540797295894623C31.078616892242433,6.540797295894623,21.723616892242433,22.04845729589462,21.723616892242433,22.04845729589462C21.723616892242433,22.04845729589462,28.583316892242433,26.22535729589462,28.583316892242433,26.22535729589462C28.583316892242433,26.22535729589462,26.505416892242433,29.67205729589462,26.505416892242433,29.67205729589462C26.505416892242433,29.67205729589462,19.64341689224243,25.49505729589462,19.64341689224243,25.49505729589462C19.64341689224243,25.49505729589462,10.290716892242433,41.00265729589462,10.290716892242433,41.00265729589462C10.290716892242433,41.00265729589462,6.859716892242432,38.91535729589462,6.859716892242432,38.91535729589462C6.859716892242432,38.91535729589462,16.214706892242432,23.407757295894623,16.214706892242432,23.407757295894623C16.214706892242432,23.407757295894623,9.354996892242433,19.230757295894623,9.354996892242433,19.230757295894623Z" fill="#FF0000" fill-opacity="1"/></g><g><path d="M0,34.73837309313044C0,34.73837309313044,12.6461,26.732273093130438,12.6461,26.732273093130438C12.6461,26.732273093130438,11.0957,29.30117309313044,11.0957,29.30117309313044C11.0957,29.30117309313044,1.27745,35.51477309313044,1.27745,35.51477309313044C1.27745,35.51477309313044,0,34.736073093130436,0,34.736073093130436C0,34.736073093130436,0,34.73837309313044,0,34.73837309313044ZM20.7856,0.2787730931304395C20.7856,0.2787730931304395,19.2375,2.8476330931304394,19.2375,2.8476330931304394C19.2375,2.8476330931304394,18.0265,17.81387309313044,18.0265,17.81387309313044C18.0265,17.81387309313044,19.5746,15.24497309313044,19.5746,15.24497309313044C19.5746,15.24497309313044,20.7856,0.2787730931304395,20.7856,0.2787730931304395Z" fill="#FF0000" fill-opacity="1"/></g><g><g><path d="M37.93833830871582,10.71778882729721C37.93833830871582,10.71778882729721,25.292198308715818,18.72387682729721,25.292198308715818,18.72387682729721C25.292198308715818,18.72387682729721,26.84027830871582,16.15501682729721,26.84027830871582,16.15501682729721C26.84027830871582,16.15501682729721,36.65853830871582,9.93906682729721,36.65853830871582,9.93906682729721C36.65853830871582,9.93906682729721,37.93603830871582,10.71778882729721,37.93603830871582,10.71778882729721C37.93603830871582,10.71778882729721,37.93833830871582,10.71778882729721,37.93833830871582,10.71778882729721ZM17.15273224871582,45.17736682729721C17.15273224871582,45.17736682729721,18.70080830871582,42.608466827297214,18.70080830871582,42.608466827297214C18.70080830871582,42.608466827297214,19.91175830871582,27.64226682729721,19.91175830871582,27.64226682729721C19.91175830871582,27.64226682729721,18.36137830871582,30.21116682729721,18.36137830871582,30.21116682729721C18.36137830871582,30.21116682729721,17.15043830871582,45.17736682729721,17.15043830871582,45.17736682729721C17.15043830871582,45.17736682729721,17.15273224871582,45.17736682729721,17.15273224871582,45.17736682729721Z" fill="#FF0000" fill-opacity="1"/></g></g></g></g></g></g><g><g mask="url(#master_svg2_30_710)"><g><g><g><path d="M26.672856692810058,45.61050224304199C26.672856692810058,45.61050224304199,26.771476692810058,47.29927224304199,26.771476692810058,47.29927224304199C26.771476692810058,47.29927224304199,28.44798669281006,47.11265224304199,28.44798669281006,47.11265224304199C28.44798669281006,47.11265224304199,27.195766692810057,48.24617224304199,27.195766692810057,48.24617224304199C27.195766692810057,48.24617224304199,28.38376669281006,49.44421224304199,28.38376669281006,49.44421224304199C28.38376669281006,49.44421224304199,26.72101669281006,49.16543224304199,26.72101669281006,49.16543224304199C26.72101669281006,49.16543224304199,26.52836669281006,50.84729224304199,26.52836669281006,50.84729224304199C26.52836669281006,50.84729224304199,25.70960669281006,49.37048224304199,25.70960669281006,49.37048224304199C25.70960669281006,49.37048224304199,24.280783692810058,50.26670224304199,24.280783692810058,50.26670224304199C24.280783692810058,50.26670224304199,24.92065669281006,48.70004224304199,24.92065669281006,48.70004224304199C24.92065669281006,48.70004224304199,23.33358669281006,48.13789224304199,23.33358669281006,48.13789224304199C23.33358669281006,48.13789224304199,24.95046669281006,47.66559224304199,24.95046669281006,47.66559224304199C24.95046669281006,47.66559224304199,24.39774669281006,46.06667524304199,24.39774669281006,46.06667524304199C24.39774669281006,46.06667524304199,25.77381669281006,47.043532243041994,25.77381669281006,47.043532243041994C25.77381669281006,47.043532243041994,26.672856692810058,45.61050224304199,26.672856692810058,45.61050224304199Z" fill="#FFFFFF" fill-opacity="1"/></g><g><path d="M21.30159129894594,28.84955883026123C21.30159129894594,28.84955883026123,21.402501298945943,30.538328830261232,21.402501298945943,30.538328830261232C21.402501298945943,30.538328830261232,23.07672129894594,30.35170883026123,23.07672129894594,30.35170883026123C23.07672129894594,30.35170883026123,21.82450129894594,31.48292883026123,21.82450129894594,31.48292883026123C21.82450129894594,31.48292883026123,23.012501298945942,32.68326883026123,23.012501298945942,32.68326883026123C23.012501298945942,32.68326883026123,21.34975129894594,32.40448883026123,21.34975129894594,32.40448883026123C21.34975129894594,32.40448883026123,21.15939129894594,34.08634883026123,21.15939129894594,34.08634883026123C21.15939129894594,34.08634883026123,20.33834129894594,32.60723883026123,20.33834129894594,32.60723883026123C20.33834129894594,32.60723883026123,18.91181029894594,33.50575883026123,18.91181029894594,33.50575883026123C18.91181029894594,33.50575883026123,19.55168129894594,31.93909883026123,19.55168129894594,31.93909883026123C19.55168129894594,31.93909883026123,17.96232129894594,31.37694883026123,17.96232129894594,31.37694883026123C17.96232129894594,31.37694883026123,19.57920129894594,30.90464883026123,19.57920129894594,30.90464883026123C19.57920129894594,30.90464883026123,19.026481298945942,29.30573183026123,19.026481298945942,29.30573183026123C19.026481298945942,29.30573183026123,20.40255129894594,30.28028883026123,20.40255129894594,30.28028883026123C20.40255129894594,30.28028883026123,21.30159129894594,28.84955883026123,21.30159129894594,28.84955883026123Z" fill="#FFFFFF" fill-opacity="1"/></g><g><path d="M32.89270151092529,21.32729284282459C32.89270151092529,21.32729284282459,32.99361151092529,23.01836284282459,32.99361151092529,23.01836284282459C32.99361151092529,23.01836284282459,34.667831510925296,22.83174284282459,34.667831510925296,22.83174284282459C34.667831510925296,22.83174284282459,33.41560151092529,23.96296284282459,33.41560151092529,23.96296284282459C33.41560151092529,23.96296284282459,34.605911510925296,25.16100284282459,34.605911510925296,25.16100284282459C34.605911510925296,25.16100284282459,32.94315151092529,24.88453284282459,32.94315151092529,24.88453284282459C32.94315151092529,24.88453284282459,32.75050151092529,26.56408284282459,32.75050151092529,26.56408284282459C32.75050151092529,26.56408284282459,31.931741510925292,25.08727284282459,31.931741510925292,25.08727284282459C31.931741510925292,25.08727284282459,30.502920510925293,25.98349284282459,30.502920510925293,25.98349284282459C30.502920510925293,25.98349284282459,31.142791510925292,24.41914284282459,31.142791510925292,24.41914284282459C31.142791510925292,24.41914284282459,29.553431510925293,23.85698284282459,29.553431510925293,23.85698284282459C29.553431510925293,23.85698284282459,31.170311510925295,23.38238284282459,31.170311510925295,23.38238284282459C31.170311510925295,23.38238284282459,30.617591510925294,21.783467842824592,30.617591510925294,21.783467842824592C30.617591510925294,21.783467842824592,31.995961510925294,22.76032284282459,31.995961510925294,22.76032284282459C31.995961510925294,22.76032284282459,32.89270151092529,21.32729284282459,32.89270151092529,21.32729284282459Z" fill="#FFFFFF" fill-opacity="1"/></g><g><path d="M39.04603517486572,30.849349975585938C39.04603517486572,30.849349975585938,39.14464517486572,32.538119975585936,39.14464517486572,32.538119975585936C39.14464517486572,32.538119975585936,40.821165174865726,32.35149997558594,40.821165174865726,32.35149997558594C40.821165174865726,32.35149997558594,39.56893517486572,33.48271997558594,39.56893517486572,33.48271997558594C39.56893517486572,33.48271997558594,40.75694517486572,34.683059975585934,40.75694517486572,34.683059975585934C40.75694517486572,34.683059975585934,39.094195174865725,34.404279975585936,39.094195174865725,34.404279975585936C39.094195174865725,34.404279975585936,38.90383517486572,36.083829975585935,38.90383517486572,36.083829975585935C38.90383517486572,36.083829975585935,38.08278517486572,34.60702997558594,38.08278517486572,34.60702997558594C38.08278517486572,34.60702997558594,36.65625417486572,35.50324997558594,36.65625417486572,35.50324997558594C36.65625417486572,35.50324997558594,37.29383517486572,33.93888997558594,37.29383517486572,33.93888997558594C37.29383517486572,33.93888997558594,35.70676517486572,33.376739975585934,35.70676517486572,33.376739975585934C35.70676517486572,33.376739975585934,37.323645174865725,32.902129975585936,37.323645174865725,32.902129975585936C37.323645174865725,32.902129975585936,36.770925174865724,31.303220975585937,36.770925174865724,31.303220975585937C36.770925174865724,31.303220975585937,38.14699517486572,32.280079975585934,38.14699517486572,32.280079975585934C38.14699517486572,32.280079975585934,39.04603517486572,30.849349975585938,39.04603517486572,30.849349975585938Z" fill="#FFFFFF" fill-opacity="1"/></g><g><path d="M32.74132629516602,37.01000690460205C32.74132629516602,37.01000690460205,32.88810629516602,38.08362690460205,32.88810629516602,38.08362690460205C32.88810629516602,38.08362690460205,33.910996295166015,38.42921690460205,33.910996295166015,38.42921690460205C33.910996295166015,38.42921690460205,32.93856629516601,38.89921690460205,32.93856629516601,38.89921690460205C32.93856629516601,38.89921690460205,32.92710629516601,39.98435690460205,32.92710629516601,39.98435690460205C32.92710629516601,39.98435690460205,32.181726295166015,39.20102690460205,32.181726295166015,39.20102690460205C32.181726295166015,39.20102690460205,31.149676295166017,39.52357690460205,31.149676295166017,39.52357690460205C31.149676295166017,39.52357690460205,31.661115295166017,38.56975690460205,31.661115295166017,38.56975690460205C31.661115295166017,38.56975690460205,31.037296295166016,37.68505390460205,31.037296295166016,37.68505390460205C31.037296295166016,37.68505390460205,32.099166295166015,37.87858190460205,32.099166295166015,37.87858190460205C32.099166295166015,37.87858190460205,32.74132629516602,37.01000690460205,32.74132629516602,37.01000690460205Z" fill="#FFFFFF" fill-opacity="1"/></g></g></g></g><g><path d="M17.418772302911417,50.00405502319336C17.418772302911417,50.00405502319336,18.134332302911417,52.23193502319336,18.134332302911417,52.23193502319336C18.134332302911417,52.23193502319336,20.313112302911417,51.40252502319336,20.313112302911417,51.40252502319336C20.313112302911417,51.40252502319336,19.024192302911416,53.35394502319336,19.024192302911416,53.35394502319336C19.024192302911416,53.35394502319336,21.028672302911417,54.54967502319336,21.028672302911417,54.54967502319336C21.028672302911417,54.54967502319336,18.705402302911416,54.75241502319336,18.705402302911416,54.75241502319336C18.705402302911416,54.75241502319336,19.026482302911415,57.072455023193356,19.026482302911415,57.072455023193356C19.026482302911415,57.072455023193356,17.418772302911417,55.37447502319336,17.418772302911417,55.37447502319336C17.418772302911417,55.37447502319336,15.813352302911415,57.072455023193356,15.813352302911415,57.072455023193356C15.813352302911415,57.072455023193356,16.134442302911417,54.75241502319336,16.134442302911417,54.75241502319336C16.134442302911417,54.75241502319336,13.811172302911416,54.54967502319336,13.811172302911416,54.54967502319336C13.811172302911416,54.54967502319336,15.815652302911417,53.35394502319336,15.815652302911417,53.35394502319336C15.815652302911417,53.35394502319336,14.526729302911416,51.40252502319336,14.526729302911416,51.40252502319336C14.526729302911416,51.40252502319336,16.705512302911416,52.23193502319336,16.705512302911416,52.23193502319336C16.705512302911416,52.23193502319336,17.418772302911417,50.00405502319336,17.418772302911417,50.00405502319336Z" fill="#FFFFFF" fill-opacity="1"/></g></g></g></svg>